<?xml version="1.0" standalone="no"?>
<!DOCTYPE svg PUBLIC "-//W3C//DTD SVG 1.1//EN" "http://www.w3.org/Graphics/SVG/1.1/DTD/svg11.dtd" >
<svg xmlns="http://www.w3.org/2000/svg" xmlns:xlink="http://www.w3.org/1999/xlink" version="1.1">
<metadata></metadata>
<defs>
<font id="robotocondensed-regularRg" horiz-adv-x="1011" >
<font-face units-per-em="2048" ascent="1536" descent="-512" />
<missing-glyph horiz-adv-x="469" />
<glyph unicode="&#xfb01;" horiz-adv-x="1003" d="M40 939v143h141v100q2 177 92.5 276t252.5 99q92 0 240 -61l-30 -156q-96 50 -196 50t-140.5 -53t-40.5 -161v-94h175v-143h-175v-939h-178v939h-141zM674 0v1082h178v-1082h-178z" />
<glyph unicode="&#xfb02;" horiz-adv-x="1032" d="M69 939v143h141v118q1 174 85.5 265.5t239.5 91.5q84 0 345 -61v-1496h-177v1381q-98 18 -153 18q-163 0 -163 -209v-108h185v-143h-185v-939h-177v939h-141z" />
<glyph horiz-adv-x="40" />
<glyph horiz-adv-x="40" />
<glyph unicode="&#xd;" horiz-adv-x="469" />
<glyph horiz-adv-x="40" />
<glyph unicode=" "  horiz-adv-x="469" />
<glyph unicode="&#x09;" horiz-adv-x="469" />
<glyph unicode="&#xa0;" horiz-adv-x="469" />
<glyph unicode="!" horiz-adv-x="503" d="M156 93q0 45 25 75.5t75 30.5t76 -30.5t26 -75.5t-26 -74.5t-76 -29.5t-75 29.5t-25 74.5zM160 1456h186l-14 -1045h-159z" />
<glyph unicode="&#x22;" horiz-adv-x="655" d="M136 1042l1 494h140v-136l-30 -358h-111zM406 1042l1 494h140v-136l-30 -358h-111z" />
<glyph unicode="#" horiz-adv-x="1122" d="M131 410v137h218l59 354h-213v139h236l69 416h134l-69 -416h206l69 416h135l-69 -416h162v-139h-185l-59 -354h181v-137h-204l-68 -410h-135l68 410h-206l-68 -410h-134l68 410h-195zM483 547h206l59 354h-206z" />
<glyph unicode="$" d="M111 429h176q0 -139 56 -214t159 -75t162.5 63t59.5 163t-50 162.5t-172 115.5q-179 65 -261 169.5t-82 266.5t79.5 266t216.5 126v220h141v-221q140 -25 216.5 -142.5t76.5 -320.5h-175q0 139 -51 223t-140 84t-138.5 -61t-49.5 -167t53.5 -166.5t174.5 -111.5 q181 -68 259.5 -169.5t78.5 -263.5t-84 -266.5t-241 -125.5v-192h-139v192q-158 23 -242 138t-84 307z" />
<glyph unicode="%" horiz-adv-x="1296" d="M107 1105v71q0 130 70.5 215.5t182.5 85.5t184 -84t72 -221v-73q0 -131 -70.5 -215t-182.5 -84t-184 84t-72 221zM236 1099q0 -80 35 -129.5t91 -49.5t90.5 48.5t34.5 134.5v73q0 81 -35.5 130.5t-91.5 49.5t-90 -50t-34 -133v-74zM302 176l597 1138l98 -66l-598 -1138z M695 284v73q0 131 71 215.5t183 84.5t184 -84t72 -223v-71q0 -132 -72 -216t-183 -84t-183 84t-72 221zM824 279q0 -81 35 -130.5t91 -49.5t90.5 50t34.5 133v75q0 81 -34.5 130t-90.5 49t-91 -48.5t-35 -133.5v-75z" />
<glyph unicode="&#x26;" horiz-adv-x="1113" d="M103 391q0 103 49.5 190.5t189.5 203.5q-82 115 -112.5 189.5t-30.5 147.5q0 167 85.5 260.5t223.5 93.5t223 -88t85 -220q0 -86 -34 -159t-120 -148l-103 -88l256 -369q47 119 47 268h158q0 -252 -102 -416l178 -256h-212l-74 107q-57 -59 -138 -93t-168 -34 q-183 0 -292 114t-109 297zM279 398q0 -124 60 -195.5t171 -71.5t209 110l-289 421l-30 -25q-121 -115 -121 -239zM375 1143q0 -69 27 -126t70 -121l77 66q61 49 83 94.5t22 111.5t-40 111t-103 45t-99.5 -56t-36.5 -125z" />
<glyph unicode="'" horiz-adv-x="357" d="M103 1057l1 479h149v-111l-21 -368h-129z" />
<glyph unicode="(" horiz-adv-x="643" d="M129 591q0 262 71 493t201 405q79 105 152 154l35 -122q-120 -115 -197 -346.5t-84 -514.5l-1 -81q0 -352 99 -622q75 -203 183 -314l-35 -113q-92 62 -187 204q-237 357 -237 857z" />
<glyph unicode=")" horiz-adv-x="652" d="M54 -357q126 121 203 369.5t79 544.5v36q0 380 -125 680q-69 164 -157 257l35 113q110 -74 213 -243q211 -348 211 -806t-200 -802q-108 -184 -224 -262z" />
<glyph unicode="*" horiz-adv-x="882" d="M28 1073l46 151l302 -112l-9 344h153l-10 -349l297 110l46 -152l-307 -91l198 -271l-124 -94l-186 288l-180 -281l-125 91l201 276z" />
<glyph unicode="+" horiz-adv-x="1017" d="M86 606v175h332v425h178v-425h329v-175h-329v-460h-178v460h-332z" />
<glyph unicode="," horiz-adv-x="402" d="M29 -218q94 131 98 270v167h181v-145q0 -101 -49.5 -202t-124.5 -162z" />
<glyph unicode="-" horiz-adv-x="508" d="M47 543v151h413v-151h-413z" />
<glyph unicode="." horiz-adv-x="539" d="M144 98q0 47 28.5 79t85.5 32t86.5 -32t29.5 -79t-29.5 -78t-86.5 -31t-85.5 31t-28.5 78z" />
<glyph unicode="/" horiz-adv-x="759" d="M31 -125l511 1581h149l-510 -1581h-150z" />
<glyph unicode="0" d="M115 593v250q0 319 94.5 476t292.5 157t293 -149t100 -451v-255q0 -322 -94 -481.5t-292 -159.5t-294 153t-100 460zM291 592q0 -461 215 -461q108 0 159 109t53 333v301q0 231 -51 340.5t-161 109.5t-161.5 -107.5t-53.5 -324.5v-300z" />
<glyph unicode="1" d="M160 1096v168l456 199h28v-1463h-178v1233z" />
<glyph unicode="2" d="M94 1027q0 201 110 325t292 124t281.5 -106.5t99.5 -283.5q0 -216 -225 -511l-324 -424h603v-151h-814v133l415 550q94 127 130.5 208t36.5 185t-53.5 176t-153.5 72t-160.5 -76.5t-60.5 -220.5h-177z" />
<glyph unicode="3" d="M98 384h177q0 -116 56 -184.5t154 -68.5t156.5 67t58.5 204q0 265 -251 265h-106v151h113q109 0 168 67t59 183q0 256 -198 256q-95 0 -149 -69t-54 -181h-176q0 175 106.5 288.5t275.5 113.5t270 -107.5t101 -304.5q0 -101 -52.5 -188.5t-136.5 -128.5q206 -76 206 -341 q0 -195 -108.5 -310.5t-282.5 -115.5t-280.5 109.5t-106.5 294.5z" />
<glyph unicode="4" d="M60 338v109l541 1009h186v-967h162v-151h-162v-338h-177v338h-550zM256 489h354v692z" />
<glyph unicode="5" d="M145 383h166q30 -252 225 -252q97 0 155 89.5t58 237.5t-62.5 237.5t-159.5 89.5t-150 -46l-47 -47l-141 38l63 726h633v-171h-484l-34 -397q90 63 194 63q170 0 267 -132.5t97 -356.5t-105.5 -353t-279.5 -129t-277 107t-118 296z" />
<glyph unicode="6" d="M132 554v71q0 300 96 563t475 269h30v-157h-29q-362 -8 -392 -467q97 122 253 122t250.5 -132.5t94.5 -354.5t-105 -355t-281 -133t-284 157t-108 417zM309 533q0 -177 62.5 -288.5t157.5 -111.5t151 91.5t56 240.5t-56 242.5t-139 93.5t-144 -55t-88 -140v-73z" />
<glyph unicode="7" d="M85 1304v152h835v-104l-501 -1352h-185l500 1304h-649z" />
<glyph unicode="8" d="M116 393q0 120 54.5 214.5t148.5 142.5q-82 48 -129 132.5t-47 193.5q0 184 99.5 292t261.5 108t262 -107t100 -293q0 -109 -48.5 -194t-130.5 -133q97 -50 152 -143.5t55 -212.5q0 -188 -106.5 -300.5t-282.5 -112.5t-282.5 112.5t-106.5 300.5zM292 396 q0 -125 55.5 -195t157.5 -70t157 69.5t55 195.5t-59 201.5t-156 75.5t-153.5 -76t-56.5 -201zM320 1072q0 -114 51 -180.5t135 -66.5t134 67.5t50 179.5t-52 182t-135 70t-133 -69t-50 -183z" />
<glyph unicode="9" d="M104 978q0 222 103 360t283 138t283.5 -159.5t103.5 -441.5v-55q0 -447 -144 -634t-456 -187v156h31q188 4 285.5 114.5t105.5 352.5q-107 -135 -257 -135t-244 134.5t-94 356.5zM277 982q0 -151 55 -246.5t149 -95.5q64 0 125 53.5t95 140.5v78q0 181 -63.5 295.5 t-155.5 114.5t-148.5 -94.5t-56.5 -245.5z" />
<glyph unicode=":" horiz-adv-x="478" d="M138 98q0 47 28 79t86 32q56 0 86 -32t30 -79t-30 -78t-86 -31q-58 0 -86 31t-28 78zM139 981q1 47 29 79t85 32t87 -32t29 -79q1 -47 -29 -78t-87 -31t-85 31t-29 78z" />
<glyph unicode=";" horiz-adv-x="415" d="M43 -218q94 131 98 270v167h181v-145q0 -101 -50 -202t-124 -162zM115 981q1 47 29 79t85 32t87 -32t29 -79q1 -47 -29 -78t-87 -31t-85 31t-29 78z" />
<glyph unicode="&#x3c;" horiz-adv-x="913" d="M79 574v146l684 378v-196l-510 -258l510 -253v-196z" />
<glyph unicode="=" horiz-adv-x="981" d="M148 399v160h701v-160h-701zM148 814v161h701v-161h-701z" />
<glyph unicode="&#x3e;" horiz-adv-x="942" d="M136 196v192l542 263l-542 258v190l720 -378v-146z" />
<glyph unicode="?" horiz-adv-x="864" d="M80 1115q2 165 100 263t256 98t250 -101t92 -275t-139 -345l-92 -111q-57 -81 -57 -234h-176q0 120 25 195t122 191l70 90q70 98 70 204t-43.5 165t-121.5 59t-129 -54t-51 -145h-176zM310 93q0 45 25 75.5t75 30.5t75.5 -30.5t25.5 -75.5t-25.5 -74.5t-75.5 -29.5 t-75 29.5t-25 74.5z" />
<glyph unicode="@" horiz-adv-x="1575" d="M116 474q9 280 102.5 499.5t252.5 338.5t362 119t353.5 -112.5t223 -322t64.5 -469.5t-99.5 -403.5t-248.5 -143.5t-205 159q-89 -159 -212 -159t-184 116t-47 300t65.5 314.5t131.5 204.5t159 74t134 -22t123 -84l-45 -554q-16 -231 99 -231q89 0 145.5 108t63.5 296 q15 391 -120.5 594t-407.5 203q-168 0 -294 -99.5t-198.5 -287t-80.5 -434.5q-14 -379 123.5 -592.5t395.5 -213.5q77 0 153.5 22.5t125.5 56.5l33 -115q-53 -39 -139.5 -64t-175.5 -25q-209 0 -360.5 112t-226.5 323.5t-66 491.5zM631 448q-23 -325 123 -325q44 0 84.5 48 t67.5 138l41 529q-44 23 -89 23q-93 0 -154 -120t-73 -293z" />
<glyph unicode="A" horiz-adv-x="1180" d="M43 0l469 1456h157l470 -1456h-188l-115 380h-492l-113 -380h-188zM392 538h397l-199 662z" />
<glyph unicode="B" horiz-adv-x="1117" d="M157 0v1456h415q400 0 400 -388q0 -102 -51 -180t-138 -121q100 -30 158.5 -123t58.5 -224q0 -196 -107.5 -308t-306.5 -112h-429zM340 157h250q104 0 165 68.5t61 192.5q0 263 -222 263h-254v-524zM340 835h235q95 0 153.5 64t58.5 177q0 222 -215 222h-232v-463z" />
<glyph unicode="C" horiz-adv-x="1161" d="M124 598v264q0 284 132.5 449t352.5 165t335.5 -126.5t125.5 -361.5h-185q-12 178 -75 254t-202 76t-219 -116.5t-80 -341.5v-267q0 -221 74.5 -339t217.5 -118t206 71t78 255h185q-12 -234 -132 -358t-338 -124t-347 166.5t-129 451.5z" />
<glyph unicode="D" horiz-adv-x="1169" d="M157 0v1456h347q255 0 396 -159.5t141 -448.5v-244q0 -289 -143 -446.5t-415 -157.5h-326zM340 157h147q193 0 282 110.5t91 327.5v258q0 230 -88.5 337.5t-267.5 107.5h-164v-1141z" />
<glyph unicode="E" horiz-adv-x="1017" d="M157 0v1456h773v-158h-590v-468h515v-157h-515v-516h600v-157h-783z" />
<glyph unicode="F" horiz-adv-x="984" d="M157 0v1456h758v-158h-575v-498h492v-157h-492v-643h-183z" />
<glyph unicode="G" horiz-adv-x="1210" d="M124 579v286q0 611 489 611q208 0 325.5 -116t129.5 -331h-183q-23 289 -271 289q-157 0 -230 -102.5t-76 -327.5v-297q0 -220 84 -337.5t236 -117.5t230 72l27 25v336h-266v156h449v-544l-32 -40q-138 -161 -389 -161t-385.5 156.5t-137.5 442.5z" />
<glyph unicode="H" horiz-adv-x="1270" d="M157 0v1456h183v-626h586v626h184v-1456h-184v673h-586v-673h-183z" />
<glyph unicode="I" horiz-adv-x="512" d="M165 0v1456h183v-1456h-183z" />
<glyph unicode="J" horiz-adv-x="990" d="M59 402h183q0 -125 55 -195t151 -70t153.5 76t57.5 213v1030h184v-1031q0 -209 -106.5 -327t-288.5 -118t-285.5 112t-103.5 310z" />
<glyph unicode="K" horiz-adv-x="1116" d="M157 0v1456h183v-703l120 159l392 544h220l-473 -641l510 -815h-219l-407 671l-143 -173v-498h-183z" />
<glyph unicode="L" horiz-adv-x="973" d="M157 0v1456h184v-1299h571v-157h-755z" />
<glyph unicode="M" horiz-adv-x="1547" d="M157 0v1456h236l380 -1188l380 1188h236v-1456h-183v567l17 568l-381 -1135h-140l-379 1131l17 -564v-567h-183z" />
<glyph unicode="N" horiz-adv-x="1268" d="M157 0v1456h184l585 -1127v1127h182v-1456h-184l-583 1122v-1122h-184z" />
<glyph unicode="O" horiz-adv-x="1230" d="M125 579v274q0 292 129.5 457.5t359.5 165.5t358.5 -158.5t131.5 -452.5v-265q0 -298 -127 -459t-357 -161t-360 156.5t-135 442.5zM307 600q0 -223 77.5 -340t231.5 -117t228 108t77 331v273q0 231 -75.5 343.5t-231.5 112.5q-305 0 -307 -450v-261z" />
<glyph unicode="P" horiz-adv-x="1135" d="M157 0v1456h464q203 0 319 -121.5t116 -327.5t-110.5 -319.5t-311.5 -117.5h-294v-570h-183zM340 727h281q122 0 187 72.5t65 206.5t-67 213t-184 79h-282v-571z" />
<glyph unicode="Q" horiz-adv-x="1230" d="M116 588v265q0 294 129 458.5t361 164.5t360 -160.5t130 -454.5v-260q0 -377 -198 -531l217 -195l-124 -121l-262 239q-63 -13 -122 -13q-227 0 -357.5 159.5t-133.5 448.5zM299 601q0 -224 77.5 -341t229.5 -117t227.5 106t79.5 327v279q0 456 -306 456t-308 -450v-260z " />
<glyph unicode="R" horiz-adv-x="1087" d="M157 0v1456h408q214 0 324 -111.5t110 -326.5q0 -135 -59.5 -235.5t-168.5 -151.5l282 -619v-12h-197l-259 589h-256v-589h-184zM341 746h222q115 0 183.5 74t68.5 198q0 280 -254 280h-220v-552z" />
<glyph unicode="S" horiz-adv-x="1061" d="M85 422h184q0 -135 75.5 -210t201.5 -75t186.5 62t60.5 170t-59 166t-213 113t-276 145.5t-122 274.5t115.5 296t302.5 112q128 0 228 -57.5t154 -159.5t54 -224h-184q0 135 -65.5 209t-181.5 74t-177 -62t-61 -164t66 -164t204 -111q215 -71 307.5 -175t92.5 -276 t-115 -279t-313 -107q-127 0 -234.5 55.5t-169 156t-61.5 230.5z" />
<glyph unicode="T" horiz-adv-x="1066" d="M60 1298v158h948v-158h-383v-1298h-183v1298h-382z" />
<glyph unicode="U" horiz-adv-x="1150" d="M130 421v1035h182v-1028q0 -147 62 -219.5t202 -72.5t202.5 72.5t62.5 219.5v1028h184v-1035q-2 -207 -119.5 -324t-331.5 -117t-328 114.5t-116 326.5z" />
<glyph unicode="V" horiz-adv-x="1147" d="M42 1456h200l331 -1175l333 1175h201l-453 -1456h-160z" />
<glyph unicode="W" horiz-adv-x="1560" d="M71 1456h183l181 -997l19 -163l29 144l233 1016h153l226 -1016l29 -148l21 168l178 996h183l-290 -1456h-165l-243 1061l-15 86l-15 -86l-252 -1061h-166z" />
<glyph unicode="X" horiz-adv-x="1128" d="M68 0l389 734l-381 722h214l276 -558l274 558h215l-379 -722l387 -734h-217l-280 568l-281 -568h-217z" />
<glyph unicode="Y" horiz-adv-x="1074" d="M30 1456h208l298 -731l298 731h207l-414 -913v-543h-183v543z" />
<glyph unicode="Z" horiz-adv-x="1070" d="M91 0v144l663 1154h-656v158h860v-141l-664 -1158h691v-157h-894z" />
<glyph unicode="[" horiz-adv-x="513" d="M137 -312v1976h332v-152h-155v-1672h155v-152h-332z" />
<glyph unicode="\" horiz-adv-x="756" d="M51 1456h167l510 -1581h-166z" />
<glyph unicode="]" horiz-adv-x="513" d="M30 -160h157v1672h-157v152h333v-1976h-333v152z" />
<glyph unicode="^" horiz-adv-x="760" d="M69 729l252 727h118l250 -727h-161l-149 482l-147 -482h-163z" />
<glyph unicode="_" horiz-adv-x="829" d="M24 0h781v-151h-781v151z" />
<glyph unicode="`" horiz-adv-x="633" d="M57 1534h223l194 -294h-159z" />
<glyph unicode="a" horiz-adv-x="981" d="M114 302q0 158 112 255t307 99h130v115q0 97 -43 138t-127 41t-134 -47.5t-50 -120.5h-177q0 83 49 158.5t132 118.5t185 43q166 0 252.5 -82.5t88.5 -240.5v-546q1 -125 34 -217v-16h-184q-16 35 -23 118q-94 -138 -240 -138t-229 82t-83 240zM291 319 q0 -95 37.5 -136.5t113.5 -41.5t135 36t86 90v258h-100q-126 -2 -199 -56.5t-73 -149.5z" />
<glyph unicode="b" horiz-adv-x="1010" d="M133 0v1536h176v-573q87 139 250 139q355 0 357 -506v-107q0 -253 -91 -381t-263 -128t-259 148l-9 -128h-161zM309 282q66 -146 196 -146t182 84t53 261v109q0 192 -54 273.5t-182 81.5t-195 -148v-515z" />
<glyph unicode="c" horiz-adv-x="946" d="M96 483v119q0 245 105 372.5t289 127.5t281 -105t103 -287h-167q-12 240 -200 240q-118 0 -175 -77.5t-59 -254.5v-138q0 -191 56.5 -270t178.5 -79q88 0 141 54.5t58 155.5h167q-6 -156 -110.5 -258.5t-255.5 -102.5q-201 0 -306.5 126.5t-105.5 376.5z" />
<glyph unicode="d" horiz-adv-x="1016" d="M95 479v111q0 250 93.5 381t258.5 131t252 -126v560h177v-1536h-162l-9 116q-87 -136 -252 -136t-260.5 130.5t-97.5 368.5zM272 489q0 -182 54 -267.5t181 -85.5t192 133v546q-68 130 -193 130t-179 -85.5t-55 -262.5v-108z" />
<glyph unicode="e" horiz-adv-x="959" d="M99 454v131q0 242 105.5 379.5t295.5 137.5t283.5 -121t95.5 -377v-116h-604v-25q0 -332 254 -332q149 0 249 123l92 -112q-115 -162 -351 -162q-202 0 -310 120.5t-110 353.5zM276 640h426v24q-7 154 -55.5 220t-152.5 66t-157.5 -75.5t-60.5 -234.5z" />
<glyph unicode="f" horiz-adv-x="648" d="M69 939v143h141v125q3 165 83.5 257.5t227.5 92.5q53 0 107 -17l-9 -150q-38 9 -81 9q-151 0 -151 -215v-102h185v-143h-185v-939h-177v939h-141z" />
<glyph unicode="g" horiz-adv-x="1009" d="M97 470v120q0 253 92 382.5t263 129.5t257 -141l9 121h160v-1092q0 -201 -103 -308.5t-287 -107.5q-80 0 -179.5 39.5t-149.5 97.5l72 122q110 -108 243 -108q221 0 227 241v141q-86 -127 -249 -127t-257 126.5t-98 363.5zM274 489q0 -182 53.5 -267.5t180.5 -85.5 t193 135v541q-69 133 -193 133t-178.5 -85.5t-55.5 -262.5v-108z" />
<glyph unicode="h" horiz-adv-x="989" d="M132 0v1536h177v-565q101 131 258 131q287 0 291 -383v-719h-176v711q0 234 -160 234q-141 0 -213 -159v-786h-177z" />
<glyph unicode="i" horiz-adv-x="469" d="M136 1369q0 45 25 76t75 31t75.5 -32t25.5 -76t-25.5 -74t-75.5 -30t-75 30t-25 75zM146 0v1082h177v-1082h-177z" />
<glyph unicode="j" horiz-adv-x="458" d="M-23 -271q27 -8 71 -8t66 33.5t22 116.5v1211h177v-1218q-3 -301 -238 -301q-54 0 -97 18zM121 1369q0 45 24.5 76t74.5 31t75.5 -32t25.5 -76t-25.5 -74t-75.5 -30t-74.5 30t-24.5 75z" />
<glyph unicode="k" horiz-adv-x="923" d="M133 0v1536h177v-919l337 465h212l-344 -452l389 -630h-206l-294 495l-94 -108v-387h-177z" />
<glyph unicode="l" horiz-adv-x="469" d="M146 0v1536h177v-1536h-177z" />
<glyph unicode="m" horiz-adv-x="1541" d="M133 0v1082h166l4 -100q99 120 271 120t243 -157q102 157 284 157q299 0 306 -373v-729h-176v712q0 118 -42 175.5t-132 57.5t-140 -62t-58 -158v-725h-178v720q-3 225 -183 225q-134 0 -189 -134v-811h-176z" />
<glyph unicode="n" horiz-adv-x="991" d="M132 0v1082h167l5 -117q103 137 263 137q287 0 291 -383v-719h-176v711q0 234 -160 234q-141 0 -213 -159v-786h-177z" />
<glyph unicode="o" horiz-adv-x="1028" d="M95 473v118q0 236 114.5 373.5t302.5 137.5t302.5 -134t117.5 -365v-114q0 -235 -114 -372t-303 -137t-302.5 133t-117.5 360zM272 489q0 -167 65.5 -262.5t176.5 -95.5q234 0 241 338v122q0 166 -66 262.5t-176 96.5t-175.5 -96.5t-65.5 -261.5v-103z" />
<glyph unicode="p" horiz-adv-x="1010" d="M133 -416v1498h160l9 -120q89 140 255 140q351 0 357 -495v-118q0 -257 -92.5 -383t-258.5 -126t-254 123v-519h-176zM309 255q65 -124 190 -124t181.5 86.5t57.5 264.5v108q0 182 -56 268.5t-182 86.5t-191 -127v-563z" />
<glyph unicode="q" horiz-adv-x="1025" d="M95 479v111q0 512 366 512q157 0 244 -126l8 106h162v-1498h-177v511q-86 -115 -250 -115t-257.5 127.5t-95.5 371.5zM272 489q0 -182 56 -270t179 -88t191 119v580q-72 120 -192 120t-176.5 -88t-57.5 -265v-108z" />
<glyph unicode="r" horiz-adv-x="623" d="M132 0v1082h172l3 -110q71 130 201 130q42 0 70 -14l1 -172q-37 7 -80 7q-136 0 -190 -149v-774h-177z" />
<glyph unicode="s" horiz-adv-x="933" d="M99 323h178q3 -90 55 -141t143 -51t137 39.5t46 101.5t-43 103t-166 96q-143 59 -230.5 122t-87.5 198q0 136 96.5 223.5t250.5 87.5t250 -92t96 -236h-176q0 73 -49 124.5t-126 51.5t-121.5 -40.5t-44.5 -101.5t32.5 -94t156.5 -87q197 -77 268 -150.5t71 -200.5 t-97 -211.5t-263 -84.5t-271 97t-105 246z" />
<glyph unicode="t" horiz-adv-x="605" d="M23 939v143h165v262h176v-262h163v-143h-163v-671q0 -130 85 -130q43 0 79 12l-2 -150q-60 -20 -123 -20q-105 0 -160 75t-55 212v672h-165z" />
<glyph unicode="u" horiz-adv-x="990" d="M129 377v705h176v-692q0 -253 152 -253q161 0 222 144v801h177v-1082h-168l-4 95q-88 -115 -246 -115q-307 0 -309 397z" />
<glyph unicode="v" horiz-adv-x="876" d="M46 1082h180l213 -813l205 813h180l-321 -1082h-132z" />
<glyph unicode="w" horiz-adv-x="1331" d="M50 1082h174l168 -752l201 752h140l206 -771l164 771h175l-265 -1082h-141l-211 774l-206 -774h-142z" />
<glyph unicode="x" horiz-adv-x="899" d="M52 0l301 547l-293 535h203l182 -395l185 395h205l-294 -535l301 -547h-203l-191 405l-192 -405h-204z" />
<glyph unicode="y" horiz-adv-x="853" d="M35 1082h193l200 -788l197 788h188l-354 -1235q-40 -139 -113 -211.5t-166 -72.5q-36 0 -92 16v150l39 -4q77 0 120.5 36.5t70.5 126.5l35 121z" />
<glyph unicode="z" horiz-adv-x="899" d="M94 0v136l496 793h-492v153h700v-131l-502 -800h522v-151h-724z" />
<glyph unicode="{" horiz-adv-x="627" d="M72 543v145q172 0 172 241v206q1 184 76 297.5t229 164.5l36 -115q-160 -63 -164 -335v-216q0 -226 -147 -316q147 -90 147 -317v-219q5 -268 163 -330l-35 -115q-303 100 -305 461v207q0 241 -172 241z" />
<glyph unicode="|" horiz-adv-x="499" d="M175 -270v1726h149v-1726h-149z" />
<glyph unicode="}" horiz-adv-x="627" d="M39 -251q160 63 165 331v221q0 231 159 314q-159 82 -159 318v207q-2 278 -165 342l36 115q297 -97 305 -448v-236q5 -225 172 -225v-145q-172 0 -172 -241v-204q0 -364 -305 -464z" />
<glyph unicode="~" horiz-adv-x="1207" d="M125 436q0 158 80.5 262t200.5 104q72 0 130 -36.5t120 -102.5q41 -50 74.5 -74t82.5 -24t88 58.5t39 152.5l144 1q0 -155 -81.5 -265t-203.5 -110q-121 0 -231 124q-56 62 -90 87.5t-84 25.5t-83 -53.5t-33 -147.5z" />
<glyph unicode="&#xa1;" horiz-adv-x="474" d="M136 996q0 45 25 75t75 30t76 -30t26 -75t-26 -76t-76 -31t-75 31t-25 76zM148 -360l13 1044h160l13 -1044h-186z" />
<glyph unicode="&#xa2;" horiz-adv-x="982" d="M104 525v37q0 207 82 349t230 179v228h176v-224q126 -25 204.5 -129.5t84.5 -254.5h-167q-6 105 -61 172.5t-139 67.5q-113 0 -173.5 -99.5t-60.5 -295.5v-35q0 -191 60 -290t174 -99q78 0 136 60t64 150h167q-6 -125 -88 -224.5t-201 -127.5v-234h-176v237 q-147 35 -229.5 175.5t-82.5 357.5z" />
<glyph unicode="&#xa3;" horiz-adv-x="1046" d="M96 622v157h126l-7 260q0 198 106.5 317.5t273.5 119.5t262.5 -105.5t95.5 -283.5h-182q0 110 -50.5 170.5t-134.5 60.5t-135.5 -78t-51.5 -201l8 -260h260v-157h-256l7 -220q-2 -153 -55 -245h615l-1 -157h-878v157h58q34 10 55 77.5t21 166.5l-6 221h-131z" />
<glyph unicode="&#xa4;" horiz-adv-x="1460" d="M105 109l139 141q-104 156 -104 360t112 367l-147 151l130 136l147 -150q158 120 354 120t354 -121l149 152l132 -137l-151 -154q110 -162 110 -362t-102 -359l143 -144l-132 -136l-136 139q-159 -132 -367 -132t-367 130l-134 -136zM311 608q0 -122 57.5 -228.5 t155.5 -167.5t211 -61t211 61.5t154.5 167.5t56.5 228t-56.5 227.5t-155.5 166t-211 60.5t-210 -60t-155.5 -166t-57.5 -228z" />
<glyph unicode="&#xa5;" horiz-adv-x="1087" d="M42 1456h209l287 -640l287 640h209l-347 -720h251v-125h-311v-165h311v-124h-311v-322h-185v322h-306v124h306v165h-306v125h254z" />
<glyph unicode="&#xa6;" horiz-adv-x="491" d="M147 -270v791h186v-791h-186zM147 698v758h186v-758h-186z" />
<glyph unicode="&#xa7;" horiz-adv-x="1100" d="M92 -64l177 2q0 -131 71.5 -206t187.5 -75t181.5 59t65.5 151t-58.5 144t-230.5 115q-219 69 -304 167t-85 258q0 187 154 273q-117 100 -117 276t114 276t308 100t304 -113t110 -318h-176q0 124 -66 202t-177 78t-175 -56.5t-64 -156.5t55.5 -149.5t226.5 -107.5 t283.5 -137.5t112.5 -278.5q0 -198 -158 -282q120 -100 120 -277t-111 -276t-311 -99t-319 112.5t-119 318.5zM274 553q0 -101 54 -152t185 -96t177 -66q123 45 123 189q0 89 -56.5 143t-228.5 120q-85 27 -138 50q-116 -39 -116 -188z" />
<glyph unicode="&#xa8;" horiz-adv-x="856" d="M102 1371q0 45 27.5 75.5t81.5 30.5t82 -30.5t28 -75.5t-28 -75t-82 -30t-81.5 30t-27.5 75zM532 1369q0 45 27.5 76t81.5 31t82 -31t28 -76t-28 -75t-82 -30t-81.5 30t-27.5 75z" />
<glyph unicode="&#xa9;" horiz-adv-x="1609" d="M91 730q0 200 93.5 373.5t259 273t357.5 99.5t357 -99.5t258.5 -272t93.5 -372.5t-90 -372t-255 -276.5t-363 -104.5t-363.5 103.5t-256.5 275.5t-91 372zM206 728q0 -171 80 -317.5t217.5 -229.5t297.5 -83t297 83t217 229.5t80 317.5t-79 316t-216.5 228.5t-297.5 83.5 t-298.5 -82.5t-218 -228.5t-79.5 -317zM442 676v110q0 176 95 281.5t253 105.5t244 -82t86 -231h-146q0 99 -48 141.5t-140 42.5t-146 -69t-54 -192v-113q0 -120 54 -189t147 -69t139.5 42t46.5 143h146q0 -153 -86.5 -233.5t-244.5 -80.5t-252 105.5t-94 287.5z" />
<glyph unicode="&#xaa;" horiz-adv-x="811" d="M140 918q0 227 279 231h90v52q0 135 -92 135q-52 0 -81 -27t-29 -78l-153 12q0 104 73.5 168.5t188.5 64.5t181 -71.5t66 -204.5v-314q0 -96 22 -181h-156l-14 68q-63 -82 -165 -82t-156 62t-54 165zM294 922q0 -94 94 -94q65 0 121 61v148h-70q-145 0 -145 -115z" />
<glyph unicode="&#xab;" horiz-adv-x="856" d="M99 539v19l248 389h129l-211 -399l211 -397h-129zM383 539v19l248 389h129l-211 -399l211 -397h-129z" />
<glyph unicode="&#xac;" horiz-adv-x="998" d="M127 639v161h705v-425h-178v264h-527z" />
<glyph unicode="&#xad;" horiz-adv-x="508" d="M47 543v151h413v-151h-413z" />
<glyph unicode="&#xae;" horiz-adv-x="1610" d="M90 730q0 200 93.5 373.5t259 273t357.5 99.5t357 -99.5t258.5 -272t93.5 -372.5t-90 -372t-255.5 -276.5t-363.5 -104.5t-363 103.5t-256 275.5t-91 372zM205 728q0 -171 80 -317.5t217.5 -229.5t297.5 -83t298.5 84.5t217 229t78.5 316.5t-78.5 316.5t-217 228 t-298.5 83.5t-298 -82.5t-217.5 -228.5t-79.5 -317zM512 316v849h276q153 0 237.5 -65.5t84.5 -189.5t-128 -189q122 -50 123 -204v-61q0 -86 17 -124v-16h-145q-14 36 -14 128.5t-3 109.5q-16 96 -131 100h-176v-338h-141zM653 782h156q72 2 116 35t44 97t-39 94t-139 30 h-138v-256z" />
<glyph unicode="&#xaf;" horiz-adv-x="848" d="M125 1313v143h614v-143h-614z" />
<glyph unicode="&#xb0;" horiz-adv-x="765" d="M130 1215q0 105 74.5 183t179.5 78t178.5 -77t73.5 -183t-74 -181t-178 -75t-179 75t-75 180zM255 1216q0 -54 37.5 -91t91.5 -37t91.5 35t37.5 93t-37.5 95.5t-91.5 37.5t-91.5 -39.5t-37.5 -93.5z" />
<glyph unicode="&#xb1;" horiz-adv-x="962" d="M105 703v151h315v413h158v-413h297v-151h-297v-414h-158v414h-315zM135 0v152h702v-152h-702z" />
<glyph unicode="&#xb2;" horiz-adv-x="675" d="M72 1205q0 114 72 188t186 74t179 -63.5t65 -171.5t-97 -221l-201 -216h323v-128h-512v108l256 288q82 97 82 155q0 120 -93 120q-58 0 -84.5 -38t-26.5 -95h-149z" />
<glyph unicode="&#xb3;" horiz-adv-x="675" d="M69 888h150q0 -45 28.5 -75t80.5 -30t80 30t28 81q0 114 -119 115h-75v116h66q117 0 117 109q0 44 -23.5 73.5t-71.5 29.5t-76 -24.5t-28 -67.5h-149q0 97 69.5 159t181.5 62t179 -60.5t67 -164.5q0 -55 -29.5 -100.5t-85.5 -70.5q125 -40 125 -184q0 -108 -74 -169.5 t-188 -61.5t-183.5 63.5t-69.5 169.5z" />
<glyph unicode="&#xb4;" horiz-adv-x="642" d="M123 1240l193 294h224l-268 -294h-149z" />
<glyph unicode="&#xb5;" horiz-adv-x="1021" d="M147 -416v1498h176v-642q2 -159 41 -234.5t130 -75.5q147 0 202 134v818h178v-1082h-159l-8 102q-73 -122 -197 -122t-187 67v-463h-176z" />
<glyph unicode="&#xb6;" horiz-adv-x="890" d="M71 988q0 213 112 340.5t303 127.5h243v-1456h-178v520h-69q-125 0 -218.5 58t-143 165t-49.5 245z" />
<glyph unicode="&#xb7;" horiz-adv-x="498" d="M138 730q0 48 26.5 79.5t79.5 31.5t80 -31.5t27 -79.5t-27 -79.5t-80 -31.5t-79.5 31.5t-26.5 79.5z" />
<glyph unicode="&#xb8;" horiz-adv-x="469" d="M119 -134l28 134h125l-10 -52q124 -27 124 -173q0 -96 -66.5 -153t-190.5 -57l-6 107q128 0 128 99q0 45 -26.5 65.5t-105.5 29.5z" />
<glyph unicode="&#xb9;" horiz-adv-x="675" d="M121 1218v128l308 117h17v-789h-149v601z" />
<glyph unicode="&#xba;" horiz-adv-x="825" d="M118 1047v76q0 154 80 253.5t214 99.5t214 -98t80 -260v-75q0 -157 -80 -255t-214 -98t-214 99.5t-80 257.5zM273 1043q0 -101 38 -157.5t102 -56.5t101 57t37 160v77q0 99 -37.5 156t-101.5 57t-101 -55.5t-38 -154.5v-83z" />
<glyph unicode="&#xbb;" horiz-adv-x="856" d="M101 152l211 398l-211 399h131l248 -389v-19l-248 -389h-131zM404 152l211 398l-211 399h131l248 -389v-19l-248 -389h-131z" />
<glyph unicode="&#xbc;" horiz-adv-x="1305" d="M82 1208v128l308 117h17v-789h-149v601zM305 184l597 1138l97 -66l-598 -1138zM681 271l310 518h151v-490h84v-130h-84v-169h-148v169h-308zM827 299h167v279z" />
<glyph unicode="&#xbd;" horiz-adv-x="1388" d="M81 1208v128l308 117h17v-789h-149v601zM268 184l597 1138l97 -66l-598 -1138zM751 538q-1 114 71 188t186 74t180 -64q65 -64 65 -172t-97 -220l-201 -216h323v-128h-512v108l256 288q82 98 82 156q0 120 -93 119q-59 0 -85 -38t-26 -95h-149z" />
<glyph unicode="&#xbe;" horiz-adv-x="1379" d="M111 889h150q1 -45 29 -75t80 -30t80 30t28 81q0 114 -119 115h-75v116h66q117 0 117 109q0 43 -24 73q-23 30 -71 30t-76 -24t-28 -68h-149q0 97 69 159q70 62 182 62q112 -1 179 -61t67 -164q0 -54 -30 -100t-85 -71q125 -40 125 -184q0 -107 -74 -169t-188 -62 t-184 64q-69 64 -69 169zM406 184l597 1138l97 -66l-598 -1138zM750 271l310 518h151v-490h84v-130h-84v-169h-148v169h-308zM896 299h167v279z" />
<glyph unicode="&#xbf;" horiz-adv-x="863" d="M71 -11q0 175 134 353l86 110q58 84 58 228h177q-1 -103 -19.5 -167t-61.5 -125l-123 -165q-75 -105 -75 -219q0 -228 177 -228q74 0 125.5 56t51.5 148h176q-2 -164 -100 -264.5t-259 -100.5t-254 99.5t-93 274.5zM329 996q0 44 25.5 74.5t75.5 30.5t75 -30.5t25 -74.5 t-25 -75t-75 -31t-75.5 31t-25.5 75z" />
<glyph unicode="&#xc0;" horiz-adv-x="1180" d="M43 0l469 1456h157l470 -1456h-188l-115 380h-492l-113 -380h-188zM283 1844h223l194 -294h-159zM392 538h397l-199 662z" />
<glyph unicode="&#xc1;" horiz-adv-x="1180" d="M43 0l469 1456h157l470 -1456h-188l-115 380h-492l-113 -380h-188zM392 538h397l-199 662zM492 1550l193 294h224l-268 -294h-149z" />
<glyph unicode="&#xc2;" horiz-adv-x="1180" d="M43 0l469 1456h157l470 -1456h-188l-115 380h-492l-113 -380h-188zM332 1562v12l209 272h105l210 -274v-10h-142l-120 170l-120 -170h-142zM392 538h397l-199 662z" />
<glyph unicode="&#xc3;" horiz-adv-x="1180" d="M43 0l469 1456h157l470 -1456h-188l-115 380h-492l-113 -380h-188zM292 1562q0 109 53 178t132 69q46 1 98 -37q53 -38 76 -48t53 -11q30 1 54 33q23 32 23 80l115 -12q0 -106 -52 -174t-134 -68q-35 0 -60 10t-65 42q-40 30 -58 36q-19 6 -47 7q-28 0 -50 -32t-23 -80z M392 538h397l-199 662z" />
<glyph unicode="&#xc4;" horiz-adv-x="1180" d="M43 0l469 1456h157l470 -1456h-188l-115 380h-492l-113 -380h-188zM273 1681q-1 45 27 75t82 31q54 -1 82 -31t28 -75t-28 -75t-82 -30t-82 30t-27 75zM392 538h397l-199 662zM703 1679q-1 45 27 76t82 31t82 -31t28 -76t-28 -75t-82 -30t-82 30t-27 75z" />
<glyph unicode="&#xc5;" horiz-adv-x="1180" d="M43 0l469 1456h157l470 -1456h-188l-115 380h-492l-113 -380h-188zM379 1729q-1 86 61 147t154 61t154 -61q62 -62 61 -148q0 -86 -62 -144q-61 -58 -153 -59q-92 0 -154 59t-61 145zM392 538h397l-199 662zM478 1730q0 -48 34 -82t82 -34t82 33t34 82t-34 83t-82 35 q-50 0 -83 -35q-33 -34 -33 -82z" />
<glyph unicode="&#xc6;" horiz-adv-x="1663" d="M-2 0l739 1456h827v-152h-580l17 -471h495v-151h-490l19 -531h591v-151h-763l-13 353h-458l-168 -353h-216zM465 527h369l-25 723z" />
<glyph unicode="&#xc7;" horiz-adv-x="1161" d="M124 598v264q0 284 132 449t353 165q219 0 335 -126t126 -362h-185q-12 178 -75 254t-202 76t-219 -116t-80 -342v-267q1 -221 75 -339t217 -118t206 71t78 255h185q-12 -234 -124 -350t-289 -130l-8 -43q124 -27 124 -173q-1 -96 -67 -153t-190 -57l-6 107q128 0 128 99 q0 46 -26 66t-106 29l27 127q-171 22 -280 162q-129 166 -129 452z" />
<glyph unicode="&#xc8;" horiz-adv-x="1017" d="M157 0v1456h773v-158h-590v-468h515v-157h-515v-516h600v-157h-783zM229 1856h223l194 -294h-159z" />
<glyph unicode="&#xc9;" horiz-adv-x="1017" d="M157 0v1456h773v-158h-590v-468h515v-157h-515v-516h600v-157h-783zM438 1562l193 294h224l-268 -294h-149z" />
<glyph unicode="&#xca;" horiz-adv-x="1017" d="M157 0v1456h773v-158h-590v-468h515v-157h-515v-516h600v-157h-783zM278 1574v12l209 272h105l210 -274v-10h-142l-120 170l-120 -170h-142z" />
<glyph unicode="&#xcb;" horiz-adv-x="1017" d="M157 0v1456h773v-158h-590v-468h515v-157h-515v-516h600v-157h-783zM219 1693q-1 45 27 75t82 31q54 -1 82 -31t28 -75t-28 -75t-82 -30t-82 30t-27 75zM649 1691q-1 45 27 76t82 31t82 -31t28 -76t-28 -75t-82 -30t-82 30t-27 75z" />
<glyph unicode="&#xcc;" horiz-adv-x="512" d="M-55 1856h223l194 -294h-159zM165 0v1456h183v-1456h-183z" />
<glyph unicode="&#xcd;" horiz-adv-x="512" d="M153 1562l193 294h224l-268 -294h-149zM165 0v1456h183v-1456h-183z" />
<glyph unicode="&#xce;" horiz-adv-x="512" d="M-6 1574v12l209 272h105l210 -274v-10h-142l-120 170l-120 -170h-142zM165 0v1456h183v-1456h-183z" />
<glyph unicode="&#xcf;" horiz-adv-x="512" d="M-65 1693q-1 45 27 75t82 31q54 -1 82 -31t28 -75t-28 -75t-82 -30t-82 30t-27 75zM165 0v1456h183v-1456h-183zM365 1691q-1 45 27 76t82 31t82 -31t28 -76t-28 -75t-82 -30t-82 30t-27 75z" />
<glyph unicode="&#xd0;" horiz-adv-x="1199" d="M18 666v151h169v639h347q255 0 396 -159.5t141 -448.5v-244q0 -289 -143 -446.5t-415 -157.5h-326v666h-169zM370 157h147q193 0 282 110.5t91 327.5v258q0 230 -88.5 337.5t-267.5 107.5h-164v-481h190v-151h-190v-509z" />
<glyph unicode="&#xd1;" horiz-adv-x="1268" d="M157 0v1456h184l585 -1127v1127h182v-1456h-184l-583 1122v-1122h-184zM328 1562q0 109 53 178t132 69q46 1 98 -37q53 -38 76 -48t53 -11q30 1 54 33q23 32 23 80l115 -12q0 -106 -52 -174t-134 -68q-35 0 -60 10t-65 42q-40 30 -58 36q-19 6 -47 7q-28 0 -50 -32 t-23 -80z" />
<glyph unicode="&#xd2;" horiz-adv-x="1230" d="M125 579v274q0 291 129 457q130 166 360 166t358 -158t132 -453v-265q0 -298 -127 -459t-357 -161t-360 156t-135 443zM307 600q-1 -223 77 -340t232 -117t228 108t77 331v273q1 231 -75 343t-232 113q-305 0 -307 -450v-261zM307 1846h223l194 -294h-159z" />
<glyph unicode="&#xd3;" horiz-adv-x="1230" d="M125 579v274q0 291 129 457q130 166 360 166t358 -158t132 -453v-265q0 -298 -127 -459t-357 -161t-360 156t-135 443zM307 600q-1 -223 77 -340t232 -117t228 108t77 331v273q1 231 -75 343t-232 113q-305 0 -307 -450v-261zM516 1552l193 294h224l-268 -294h-149z" />
<glyph unicode="&#xd4;" horiz-adv-x="1230" d="M125 579v274q0 291 129 457q130 166 360 166t358 -158t132 -453v-265q0 -298 -127 -459t-357 -161t-360 156t-135 443zM307 600q-1 -223 77 -340t232 -117t228 108t77 331v273q1 231 -75 343t-232 113q-305 0 -307 -450v-261zM356 1564v12l209 272h105l210 -274v-10h-142 l-120 170l-120 -170h-142z" />
<glyph unicode="&#xd5;" horiz-adv-x="1230" d="M125 579v274q0 291 129 457q130 166 360 166t358 -158t132 -453v-265q0 -298 -127 -459t-357 -161t-360 156t-135 443zM307 600q-1 -223 77 -340t232 -117t228 108t77 331v273q1 231 -75 343t-232 113q-305 0 -307 -450v-261zM316 1564q0 109 53 178t132 69q46 1 98 -37 q53 -38 76 -48t53 -11q30 1 54 33q23 32 23 80l115 -12q0 -106 -52 -174t-134 -68q-35 0 -60 10t-65 42q-40 30 -58 36q-19 6 -47 7q-28 0 -50 -32t-23 -80z" />
<glyph unicode="&#xd6;" horiz-adv-x="1230" d="M125 579v274q0 291 129 457q130 166 360 166t358 -158t132 -453v-265q0 -298 -127 -459t-357 -161t-360 156t-135 443zM297 1683q-1 45 27 75t82 31q54 -1 82 -31t28 -75t-28 -75t-82 -30t-82 30t-27 75zM307 600q-1 -223 77 -340t232 -117t228 108t77 331v273 q1 231 -75 343t-232 113q-305 0 -307 -450v-261zM727 1681q-1 45 27 76t82 31t82 -31t28 -76t-28 -75t-82 -30t-82 30t-27 75z" />
<glyph unicode="&#xd7;" horiz-adv-x="964" d="M91 1000l113 123l272 -330l272 330l112 -123l-278 -337l276 -334l-113 -123l-270 327l-269 -327l-113 123l275 334z" />
<glyph unicode="&#xd8;" horiz-adv-x="1230" d="M117 689v84q0 208 61 368t174.5 247.5t277.5 87.5t286 -119l84 159h131l-136 -258q113 -181 117 -466v-111q0 -323 -134 -512t-362 -189q-140 0 -250 78l-79 -151h-131l122 233q-161 193 -161 549zM299 681q0 -228 70 -368l463 882q-82 116 -224 116t-225.5 -144.5 t-83.5 -393.5v-92zM445 209q72 -66 171 -66q150 0 232 138.5t82 399.5v94q0 167 -37 288z" />
<glyph unicode="&#xd9;" horiz-adv-x="1150" d="M130 421v1035h182v-1028q0 -148 62 -220t202 -72t202 72t63 220v1028h184v-1035q-2 -207 -120 -324q-117 -117 -331 -117t-328 114t-116 327zM264 1844h223l194 -294h-159z" />
<glyph unicode="&#xda;" horiz-adv-x="1150" d="M130 421v1035h182v-1028q0 -148 62 -220t202 -72t202 72t63 220v1028h184v-1035q-2 -207 -120 -324q-117 -117 -331 -117t-328 114t-116 327zM473 1550l193 294h224l-268 -294h-149z" />
<glyph unicode="&#xdb;" horiz-adv-x="1150" d="M130 421v1035h182v-1028q0 -148 62 -220t202 -72t202 72t63 220v1028h184v-1035q-2 -207 -120 -324q-117 -117 -331 -117t-328 114t-116 327zM313 1562v12l209 272h105l210 -274v-10h-142l-120 170l-120 -170h-142z" />
<glyph unicode="&#xdc;" horiz-adv-x="1150" d="M130 421v1035h182v-1028q0 -148 62 -220t202 -72t202 72t63 220v1028h184v-1035q-2 -207 -120 -324q-117 -117 -331 -117t-328 114t-116 327zM254 1681q0 45 28 75t81 31q54 -1 82 -31t28 -75t-28 -75t-82 -30q-53 0 -81 30t-28 75zM684 1679q0 45 28 76t81 31 q54 0 82 -31t28 -76t-28 -75t-82 -30q-53 0 -81 30t-28 75z" />
<glyph unicode="&#xdd;" horiz-adv-x="1074" d="M30 1456h208l298 -731l298 731h207l-414 -913v-543h-183v543zM438 1550l193 294h224l-268 -294h-149z" />
<glyph unicode="&#xde;" horiz-adv-x="1055" d="M154 0v1456h177v-293h223q191 -2 301 -118.5t110 -307.5t-111.5 -307.5t-309.5 -116.5h-213v-313h-177zM331 465h218q112 0 175.5 75.5t63.5 197.5t-63.5 197t-171.5 76h-221l-1 1v-547z" />
<glyph unicode="&#xdf;" horiz-adv-x="1069" d="M133 0v1111q0 209 91 326t248 117t242.5 -88t85.5 -232t-54.5 -245t-54.5 -161t31 -107.5t144.5 -153t113.5 -260.5t-85.5 -241t-240.5 -86q-66 0 -141.5 21.5t-108.5 50.5l39 155q33 -28 90 -52t102 -24q169 0 169 176q0 53 -31.5 102t-145 153.5t-113.5 258.5 q0 60 19 105.5t41.5 87t41.5 86t19 122.5t-43 129t-110 51q-170 0 -173 -282v-1120h-176z" />
<glyph unicode="&#xe0;" horiz-adv-x="981" d="M114 302q0 158 112 255t307 99h130v115q0 97 -43 138t-127 41t-134 -48t-50 -120h-177q0 82 49 158t132 119t185 43q166 0 252 -82t89 -241v-546q1 -125 34 -217v-16h-184q-16 35 -23 118q-94 -138 -240 -138t-230 82q-82 82 -82 240zM198 1534h223l194 -294h-159z M291 319q0 -95 37 -137q38 -42 114 -41q76 0 135 36t86 90v258h-100q-126 -3 -199 -57t-73 -149z" />
<glyph unicode="&#xe1;" horiz-adv-x="981" d="M114 302q0 158 112 255t307 99h130v115q0 97 -43 138t-127 41t-134 -48t-50 -120h-177q0 82 49 158t132 119t185 43q166 0 252 -82t89 -241v-546q1 -125 34 -217v-16h-184q-16 35 -23 118q-94 -138 -240 -138t-230 82q-82 82 -82 240zM291 319q0 -95 37 -137 q38 -42 114 -41q76 0 135 36t86 90v258h-100q-126 -3 -199 -57t-73 -149zM407 1240l193 294h224l-268 -294h-149z" />
<glyph unicode="&#xe2;" horiz-adv-x="981" d="M114 302q0 158 112 255t307 99h130v115q0 97 -43 138t-127 41t-134 -48t-50 -120h-177q0 82 49 158t132 119t185 43q166 0 252 -82t89 -241v-546q1 -125 34 -217v-16h-184q-16 35 -23 118q-94 -138 -240 -138t-230 82q-82 82 -82 240zM247 1252v12l209 272h105l210 -274 v-10h-142l-120 170l-120 -170h-142zM291 319q0 -95 37 -137q38 -42 114 -41q76 0 135 36t86 90v258h-100q-126 -3 -199 -57t-73 -149z" />
<glyph unicode="&#xe3;" horiz-adv-x="981" d="M114 302q0 158 112 255t307 99h130v115q0 97 -43 138t-127 41t-134 -48t-50 -120h-177q0 82 49 158t132 119t185 43q166 0 252 -82t89 -241v-546q1 -125 34 -217v-16h-184q-16 35 -23 118q-94 -138 -240 -138t-230 82q-82 82 -82 240zM207 1252q0 109 53 178t132 69 q46 1 98 -37q53 -38 76 -48q24 -10 54 -11q30 1 53 33t23 80l115 -12q0 -106 -52 -174t-134 -68q-35 0 -60 10t-65 42q-40 30 -58 36t-46 7q-28 0 -52 -32q-22 -32 -22 -80zM291 319q0 -95 37 -137q38 -42 114 -41q76 0 135 36t86 90v258h-100q-126 -3 -199 -57t-73 -149z " />
<glyph unicode="&#xe4;" horiz-adv-x="981" d="M114 302q0 158 112 255t307 99h130v115q0 97 -43 138t-127 41t-134 -48t-50 -120h-177q0 82 49 158t132 119t185 43q166 0 252 -82t89 -241v-546q1 -125 34 -217v-16h-184q-16 35 -23 118q-94 -138 -240 -138t-230 82q-82 82 -82 240zM188 1371q0 45 28 75t81 31 q54 -1 82 -31t28 -75t-28 -75t-82 -30q-53 0 -81 30t-28 75zM291 319q0 -95 37 -137q38 -42 114 -41q76 0 135 36t86 90v258h-100q-126 -3 -199 -57t-73 -149zM618 1369q0 45 28 76t81 31q54 0 82 -31t28 -76t-28 -75t-82 -30q-53 0 -81 30t-28 75z" />
<glyph unicode="&#xe5;" horiz-adv-x="981" d="M114 302q0 158 112 255t307 99h130v115q0 97 -43 138t-127 41t-134 -48t-50 -120h-177q0 82 49 158t132 119t185 43q166 0 252 -82t89 -241v-546q1 -125 34 -217v-16h-184q-16 35 -23 118q-94 -138 -240 -138t-230 82q-82 82 -82 240zM291 319q0 -95 37 -137 q38 -42 114 -41q76 0 135 36t86 90v258h-100q-126 -3 -199 -57t-73 -149zM294 1419q0 86 62 147t153 61t153 -61q62 -62 62 -148t-62 -144t-154 -59q-92 0 -152 59q-62 59 -62 145zM393 1420q-1 -48 33 -82t82 -34t83 33q34 33 34 82q1 49 -33 83t-84 35q-50 0 -82 -35 q-33 -34 -33 -82z" />
<glyph unicode="&#xe6;" horiz-adv-x="1491" d="M83 306q0 155 96 242t283 87h177v85q0 107 -43.5 168.5t-123.5 61.5t-135 -54.5t-55 -136.5l-175 19q0 142 102.5 233t262.5 91q198 0 285 -153q111 153 286 153t273.5 -129t98.5 -362v-114h-602q5 -174 74.5 -270.5t193.5 -96.5t222 76l39 31l59 -136 q-51 -55 -137.5 -88t-184.5 -33q-220 0 -335 172q-117 -172 -375 -172q-127 0 -206.5 85.5t-79.5 240.5zM260 300q0 -170 167 -170q84 0 182 88l30 30v247h-177q-91 -1 -146.5 -55t-55.5 -140zM816 640h423v31q0 135 -52 207t-146 72t-153.5 -87t-71.5 -223z" />
<glyph unicode="&#xe7;" horiz-adv-x="946" d="M96 483v119q0 244 105 372t289 128t280 -105q98 -105 104 -287h-167q-12 240 -200 240q-118 0 -175 -78t-59 -254v-138q1 -191 57 -270t178 -79q88 1 141 55t58 155h167q-6 -156 -107 -255t-237 -105l-8 -42q124 -27 124 -173q0 -96 -66 -153t-191 -57l-6 107 q128 0 128 99q-1 46 -27 66t-105 29l28 132q-311 60 -311 494z" />
<glyph unicode="&#xe8;" horiz-adv-x="959" d="M99 454v131q-1 241 105 379t296 138t283 -121q94 -121 96 -377v-116h-604v-25q0 -332 254 -332q149 0 249 123l92 -112q-115 -162 -351 -162q-202 0 -310 120t-110 354zM183 1534h223l194 -294h-159zM276 640h426v24q-8 154 -56 220t-152 66t-158 -76q-53 -76 -60 -234z " />
<glyph unicode="&#xe9;" horiz-adv-x="959" d="M99 454v131q-1 241 105 379t296 138t283 -121q94 -121 96 -377v-116h-604v-25q0 -332 254 -332q149 0 249 123l92 -112q-115 -162 -351 -162q-202 0 -310 120t-110 354zM276 640h426v24q-8 154 -56 220t-152 66t-158 -76q-53 -76 -60 -234zM392 1240l193 294h224 l-268 -294h-149z" />
<glyph unicode="&#xea;" horiz-adv-x="959" d="M99 454v131q-1 241 105 379t296 138t283 -121q94 -121 96 -377v-116h-604v-25q0 -332 254 -332q149 0 249 123l92 -112q-115 -162 -351 -162q-202 0 -310 120t-110 354zM232 1252v12l209 272h105l210 -274v-10h-142l-120 170l-120 -170h-142zM276 640h426v24 q-8 154 -56 220t-152 66t-158 -76q-53 -76 -60 -234z" />
<glyph unicode="&#xeb;" horiz-adv-x="959" d="M99 454v131q-1 241 105 379t296 138t283 -121q94 -121 96 -377v-116h-604v-25q0 -332 254 -332q149 0 249 123l92 -112q-115 -162 -351 -162q-202 0 -310 120t-110 354zM173 1371q-1 45 27 75t82 31q54 -1 82 -31t28 -75t-28 -75t-82 -30t-82 30t-27 75zM276 640h426v24 q-8 154 -56 220t-152 66t-158 -76q-53 -76 -60 -234zM603 1369q-1 45 27 76t82 31t82 -31t28 -76t-28 -75t-82 -30t-82 30t-27 75z" />
<glyph unicode="&#xec;" horiz-adv-x="481" d="M-71 1533h223l194 -294h-159zM146 0v1082h177v-1082h-177z" />
<glyph unicode="&#xed;" horiz-adv-x="481" d="M137 1239l193 294h224l-268 -294h-149zM146 0v1082h177v-1082h-177z" />
<glyph unicode="&#xee;" horiz-adv-x="481" d="M-22 1251v12l209 272h105l210 -274v-10h-142l-120 170l-120 -170h-142zM146 0v1082h177v-1082h-177z" />
<glyph unicode="&#xef;" horiz-adv-x="481" d="M-81 1370q-1 46 27 76t82 30t82 -30t28 -76q0 -45 -28 -75t-82 -30t-82 30t-27 75zM146 0v1082h177v-1082h-177zM349 1368q-1 45 27 76t82 31t82 -31t28 -76t-28 -75t-82 -30t-82 30t-27 75z" />
<glyph unicode="&#xf0;" horiz-adv-x="1051" d="M118 473q0 141 48.5 258t136.5 181.5t204 64.5t214 -100q-42 185 -152 317l-181 -143l-68 99l164 130q-110 91 -263 141l54 159q198 -53 347 -190l159 126l68 -100l-144 -114q217 -266 217 -675v-92q0 -159 -50.5 -285.5t-143 -198t-206.5 -71.5t-207 63t-145 176 t-52 254zM295 480q0 -154 65 -251.5t164 -97.5t159.5 110t62.5 284v110l-2 60q-26 59 -80.5 94.5t-121.5 35.5q-114 0 -180.5 -95.5t-66.5 -249.5z" />
<glyph unicode="&#xf1;" horiz-adv-x="991" d="M132 0v1082h167l5 -117q103 137 263 137q287 0 291 -383v-719h-176v711q0 234 -160 234q-141 0 -213 -159v-786h-177zM198 1252q0 109 53 178t132 69q46 1 98 -37q53 -38 76 -48t53 -11q30 1 54 33q23 32 23 80l115 -12q0 -106 -52 -174t-134 -68q-35 0 -60 10t-65 42 q-40 30 -58 36q-19 6 -47 7q-28 0 -50 -32t-23 -80z" />
<glyph unicode="&#xf2;" horiz-adv-x="1028" d="M95 473v118q1 235 115 373t302 138t302 -134t118 -365v-114q0 -235 -114 -372t-303 -137t-303 133t-117 360zM193 1534h223l194 -294h-159zM272 489q0 -167 66 -263t176 -95q234 0 241 338v122q0 167 -66 263t-176 96q-109 0 -175 -96t-66 -262v-103z" />
<glyph unicode="&#xf3;" horiz-adv-x="1028" d="M95 473v118q1 235 115 373t302 138t302 -134t118 -365v-114q0 -235 -114 -372t-303 -137t-303 133t-117 360zM272 489q0 -167 66 -263t176 -95q234 0 241 338v122q0 167 -66 263t-176 96q-109 0 -175 -96t-66 -262v-103zM402 1240l193 294h224l-268 -294h-149z" />
<glyph unicode="&#xf4;" horiz-adv-x="1028" d="M95 473v118q1 235 115 373t302 138t302 -134t118 -365v-114q0 -235 -114 -372t-303 -137t-303 133t-117 360zM242 1252v12l209 272h105l210 -274v-10h-142l-120 170l-120 -170h-142zM272 489q0 -167 66 -263t176 -95q234 0 241 338v122q0 167 -66 263t-176 96 q-109 0 -175 -96t-66 -262v-103z" />
<glyph unicode="&#xf5;" horiz-adv-x="1028" d="M95 473v118q1 235 115 373t302 138t302 -134t118 -365v-114q0 -235 -114 -372t-303 -137t-303 133t-117 360zM202 1252q0 109 53 178t132 69q46 1 98 -37q53 -38 76 -48t53 -11q30 1 54 33q23 32 23 80l115 -12q0 -106 -52 -174t-134 -68q-35 0 -60 10t-65 42 q-40 30 -58 36q-19 6 -47 7q-28 0 -50 -32t-23 -80zM272 489q0 -167 66 -263t176 -95q234 0 241 338v122q0 167 -66 263t-176 96q-109 0 -175 -96t-66 -262v-103z" />
<glyph unicode="&#xf6;" horiz-adv-x="1028" d="M95 473v118q1 235 115 373t302 138t302 -134t118 -365v-114q0 -235 -114 -372t-303 -137t-303 133t-117 360zM183 1371q-1 45 27 75t82 31q54 -1 82 -31t28 -75t-28 -75t-82 -30t-82 30t-27 75zM272 489q0 -167 66 -263t176 -95q234 0 241 338v122q0 167 -66 263t-176 96 q-109 0 -175 -96t-66 -262v-103zM613 1369q-1 45 27 76t82 31t82 -31t28 -76t-28 -75t-82 -30t-82 30t-27 75z" />
<glyph unicode="&#xf7;" horiz-adv-x="1024" d="M79 600v184h839v-184h-839zM396 282q0 47 26.5 79t79.5 32t80 -32t27 -79t-27 -78.5t-80 -31.5t-79.5 31.5t-26.5 78.5zM396 1098q0 48 26.5 80t79.5 32t80 -32t27 -80t-27 -78.5t-80 -30.5t-79.5 30.5t-26.5 78.5z" />
<glyph unicode="&#xf8;" horiz-adv-x="1021" d="M97 551q0 245 115 398t300 153q90 0 168 -39l60 145h114l-86 -206q163 -155 163 -473q0 -243 -115 -396t-302 -153q-81 0 -156 32l-61 -146h-114l85 205q-171 148 -171 480zM273 542q0 -192 65 -303l281 678q-47 33 -107 33q-108 0 -173.5 -108t-65.5 -300zM418 156 q44 -25 96 -25q111 0 175 108.5t64 294.5t-57 293z" />
<glyph unicode="&#xf9;" horiz-adv-x="990" d="M129 377v705h176v-692q0 -253 152 -253q161 0 222 144v801h177v-1082h-168l-4 95q-88 -115 -246 -115q-307 0 -309 397zM183 1534h223l194 -294h-159z" />
<glyph unicode="&#xfa;" horiz-adv-x="990" d="M129 377v705h176v-692q0 -253 152 -253q161 0 222 144v801h177v-1082h-168l-4 95q-88 -115 -246 -115q-307 0 -309 397zM392 1240l193 294h224l-268 -294h-149z" />
<glyph unicode="&#xfb;" horiz-adv-x="990" d="M129 377v705h176v-692q0 -253 152 -253q161 0 222 144v801h177v-1082h-168l-4 95q-88 -115 -246 -115q-307 0 -309 397zM232 1252v12l209 272h105l210 -274v-10h-142l-120 170l-120 -170h-142z" />
<glyph unicode="&#xfc;" horiz-adv-x="990" d="M129 377v705h176v-692q0 -253 152 -253q161 0 222 144v801h177v-1082h-168l-4 95q-88 -115 -246 -115q-307 0 -309 397zM173 1371q-1 45 27 75t82 31q54 -1 82 -31t28 -75t-28 -75t-82 -30t-82 30t-27 75zM603 1369q-1 45 27 76t82 31t82 -31t28 -76t-28 -75t-82 -30 t-82 30t-27 75z" />
<glyph unicode="&#xfd;" horiz-adv-x="853" d="M35 1082h193l200 -788l197 788h188l-354 -1235q-40 -139 -113 -211t-166 -73q-36 0 -92 16v150l39 -4q77 1 121 37t70 126l35 121zM343 1240l193 294h224l-268 -294h-149z" />
<glyph unicode="&#xfe;" horiz-adv-x="1041" d="M142 -416v1952h176v-547q92 113 254 113t256.5 -148t94.5 -410t-95.5 -413t-255.5 -151t-254 108v-504h-176zM318 265q64 -134 184 -134t182.5 107.5t62.5 299.5t-62 299.5t-181 107.5t-186 -138v-542z" />
<glyph unicode="&#xff;" horiz-adv-x="853" d="M35 1082h193l200 -788l197 788h188l-354 -1235q-40 -139 -113 -211t-166 -73q-36 0 -92 16v150l39 -4q77 1 121 37t70 126l35 121zM124 1371q0 45 28 75t81 31q54 -1 82 -31t28 -75t-28 -75t-82 -30q-53 0 -81 30t-28 75zM554 1369q0 45 28 76t81 31q54 0 82 -31t28 -76 t-28 -75t-82 -30q-53 0 -81 30t-28 75z" />
<glyph unicode="&#x152;" horiz-adv-x="1693" d="M106 576v304q0 172 58 307.5t167 212t229 76.5t259 -20h704v-158h-590v-468h514v-157h-514v-516h600v-157h-714q-147 -21 -239 -21q-138 0 -246.5 75.5t-168 212t-59.5 309.5zM283 576q0 -209 77.5 -327.5t219.5 -118.5q83 0 170 13v1168q-82 14 -172 14 q-139 0 -217 -115.5t-78 -329.5v-304z" />
<glyph unicode="&#x153;" horiz-adv-x="1592" d="M102 537v14q0 246 111 398.5t296 152.5q216 0 327 -199q55 94 134.5 146.5t169.5 52.5q179 0 277 -125.5t98 -361.5v-118h-588q4 -171 68.5 -269t172.5 -98q155 0 253 108l70 -126q-122 -132 -332 -132t-325 193q-114 -193 -312 -193t-309 151.5t-111 405.5zM279 541 q0 -198 61 -304.5t170 -106.5t169.5 106t60.5 304t-61 304t-169 106t-169.5 -105.5t-61.5 -303.5zM932 649h406v26q0 128 -52 201.5t-138 73.5t-144 -86.5t-72 -214.5z" />
<glyph unicode="&#x178;" horiz-adv-x="1074" d="M30 1456h208l298 -731l298 731h207l-414 -913v-543h-183v543zM219 1681q-1 45 27 75t82 31q54 -1 82 -31t28 -75t-28 -75t-82 -30t-82 30t-27 75zM649 1679q-1 45 27 76t82 31t82 -31t28 -76t-28 -75t-82 -30t-82 30t-27 75z" />
<glyph unicode="&#x2c6;" horiz-adv-x="877" d="M165 1252v12l209 272h105l210 -274v-10h-142l-120 170l-120 -170h-142z" />
<glyph unicode="&#x2dc;" horiz-adv-x="875" d="M129 1248q0 109 53 178t132 69q46 0 98.5 -37.5t76 -48t53.5 -10.5t53 32.5t23 80.5l115 -12q0 -105 -52 -173.5t-134 -68.5q-35 0 -60 10.5t-65 41t-58 37t-46 6.5t-51 -32t-23 -80z" />
<glyph unicode="&#x2000;" horiz-adv-x="968" />
<glyph unicode="&#x2001;" horiz-adv-x="1937" />
<glyph unicode="&#x2002;" horiz-adv-x="968" />
<glyph unicode="&#x2003;" horiz-adv-x="1937" />
<glyph unicode="&#x2004;" horiz-adv-x="645" />
<glyph unicode="&#x2005;" horiz-adv-x="484" />
<glyph unicode="&#x2006;" horiz-adv-x="322" />
<glyph unicode="&#x2007;" horiz-adv-x="322" />
<glyph unicode="&#x2008;" horiz-adv-x="242" />
<glyph unicode="&#x2009;" horiz-adv-x="387" />
<glyph unicode="&#x200a;" horiz-adv-x="107" />
<glyph unicode="&#x2010;" horiz-adv-x="508" d="M47 543v151h413v-151h-413z" />
<glyph unicode="&#x2011;" horiz-adv-x="508" d="M47 543v151h413v-151h-413z" />
<glyph unicode="&#x2012;" horiz-adv-x="508" d="M47 543v151h413v-151h-413z" />
<glyph unicode="&#x2013;" horiz-adv-x="1172" d="M154 651v151h842v-151h-842z" />
<glyph unicode="&#x2014;" horiz-adv-x="1389" d="M99 651v151h1122v-151h-1122z" />
<glyph unicode="&#x2018;" horiz-adv-x="398" d="M100 1073v116q0 101 44 202.5t113 163.5l100 -72q-79 -130 -82 -272v-138h-175z" />
<glyph unicode="&#x2019;" horiz-adv-x="398" d="M56 1118q78 131 81 272v146h175v-135q-2 -96 -44.5 -194.5t-112.5 -160.5z" />
<glyph unicode="&#x201a;" horiz-adv-x="399" d="M48 -210q80 131 80 283v108h177v-100q0 -98 -43 -198.5t-114 -165.5z" />
<glyph unicode="&#x201c;" horiz-adv-x="684" d="M109 1073v116q0 101 44 203t113 163l100 -72q-79 -130 -82 -272v-138h-175zM394 1073v116q0 101 44 203t113 163l100 -72q-79 -130 -82 -272v-138h-175z" />
<glyph unicode="&#x201d;" horiz-adv-x="691" d="M68 1118q78 131 81 272v146h175v-135q-2 -97 -44 -195t-113 -160zM346 1118q78 131 81 272v146h175v-135q-2 -97 -44 -195t-113 -160z" />
<glyph unicode="&#x201e;" horiz-adv-x="668" d="M48 -229q77 136 80 288v187h177v-164q0 -105 -43 -209.5t-114 -173.5zM317 -229q77 136 80 288v187h177v-164q0 -105 -43.5 -210.5t-114.5 -172.5z" />
<glyph unicode="&#x2022;" horiz-adv-x="690" d="M138 734v38q0 87 55 143t147 56t149 -54.5t57 -147.5v-37q0 -87 -55 -142t-149 -55t-149 55.5t-55 143.5z" />
<glyph unicode="&#x2026;" horiz-adv-x="1209" d="M143 98q1 47 29 79t85 32t87 -32t29 -79q1 -47 -29 -78t-87 -31t-85 31t-29 78zM517 98q1 47 29 79t85 32t87 -32t29 -79q1 -47 -29 -78t-87 -31t-85 31t-29 78zM873 98q1 47 29 79t85 32t87 -32t29 -79q1 -47 -29 -78t-87 -31t-85 31t-29 78z" />
<glyph unicode="&#x202f;" horiz-adv-x="387" />
<glyph unicode="&#x2039;" horiz-adv-x="557" d="M111 541v19l248 389h129l-211 -399l211 -397h-129z" />
<glyph unicode="&#x203a;" horiz-adv-x="557" d="M92 152l211 398l-211 399h131l248 -389v-19l-248 -389h-131z" />
<glyph unicode="&#x205f;" horiz-adv-x="484" />
<glyph unicode="&#x20ac;" d="M103 541v124h146v137h-146v125h146q8 257 126.5 403t325.5 146q91 0 206 -31l-20 -162q-92 35 -184 35q-121 0 -193 -96t-78 -295h311v-125h-311v-137h311v-124h-311q2 -192 72 -298.5t200 -106.5q99 0 183 34l20 -160q-103 -30 -205 -30q-208 0 -328.5 147t-124.5 414 h-146z" />
<glyph unicode="&#x2122;" horiz-adv-x="1121" d="M105 1375v81h323v-81h-120v-456h-82v456h-121zM493 919v537h101l116 -399l116 399h101v-537h-81v394l-114 -394h-44l-114 393v-393h-81z" />
<glyph unicode="&#x25fc;" horiz-adv-x="1080" d="M0 0v1080h1080v-1080h-1080z" />
<glyph unicode="&#xfb03;" horiz-adv-x="1525" d="M69 939v143h141v125q3 165 83.5 257.5t227.5 92.5q53 0 107 -17l-9 -150q-38 9 -81 9q-151 0 -151 -215v-102h316v100q2 177 92.5 276t252.5 99q92 0 240 -61l-30 -156q-96 50 -196 50t-141 -53.5t-41 -160.5v-94h176v-143h-176v-939h-177v939h-316v-939h-177v939h-141z M1196 0v1082h176v-1082h-176z" />
<glyph unicode="&#xfb04;" horiz-adv-x="1525" d="M69 939v143h141v125q3 165 83.5 257.5t227.5 92.5q53 0 107 -17l-9 -150q-38 9 -81 9q-151 0 -151 -215v-102h316v118q1 174 85.5 265.5t239.5 91.5q83 0 344 -61v-1496h-176v1381q-98 18 -153 18q-163 0 -163 -208v-109h185v-143h-185v-939h-177v939h-316v-939h-177v939 h-141z" />
</font>
</defs>
</svg>
