<?xml version="1.0" standalone="no"?>
<!DOCTYPE svg PUBLIC "-//W3C//DTD SVG 1.1//EN" "http://www.w3.org/Graphics/SVG/1.1/DTD/svg11.dtd" >
<svg xmlns="http://www.w3.org/2000/svg" xmlns:xlink="http://www.w3.org/1999/xlink" version="1.1">
<metadata></metadata>
<defs>
<font id="robotocondensed-boldbold" horiz-adv-x="1036" >
<font-face units-per-em="2048" ascent="1536" descent="-512" />
<missing-glyph horiz-adv-x="472" />
<glyph unicode="&#xfb01;" horiz-adv-x="1118" d="M29 869v213h131v49q2 204 111.5 315t312.5 111q117 0 287 -59l-41 -241q-122 46 -227 46q-157 0 -159 -173v-48h167v-213h-167v-869h-284v869h-131zM716 0v1082h284v-1082h-284z" />
<glyph unicode="&#xfb02;" horiz-adv-x="1126" d="M37 869v213h131v75q0 195 105 297.5t298 102.5q146 0 437 -31v-1526h-284v1313q-70 7 -113 7q-159 0 -159 -165v-73h169v-213h-169v-869h-284v869h-131z" />
<glyph horiz-adv-x="0" />
<glyph horiz-adv-x="0" />
<glyph unicode="&#xd;" horiz-adv-x="472" />
<glyph horiz-adv-x="0" />
<glyph unicode=" "  horiz-adv-x="472" />
<glyph unicode="&#x09;" horiz-adv-x="472" />
<glyph unicode="&#xa0;" horiz-adv-x="472" />
<glyph unicode="!" horiz-adv-x="533" d="M119 138q0 68 43.5 111t111.5 43t111 -43t43 -111t-42 -111t-112 -43t-112.5 43t-42.5 111zM124 1456h301l-33 -1008h-235z" />
<glyph unicode="&#x22;" horiz-adv-x="656" d="M62 985v551h203v-138l-39 -413h-164zM389 985v551h203v-138l-40 -413h-163z" />
<glyph unicode="#" horiz-adv-x="1080" d="M74 410v173h208l42 283h-187v174h212l61 416h174l-61 -416h135l61 416h174l-61 -416h179v-174h-204l-42 -283h182v-173h-207l-60 -410h-175l60 410h-134l-59 -410h-175l60 410h-183zM456 583h135l41 283h-134z" />
<glyph unicode="$" d="M92 458h283q0 -245 152 -245q61 0 95.5 45.5t34.5 127.5t-34 129.5t-112 89.5q-153 68 -262.5 161t-109.5 304q0 166 92 274.5t243 128.5v214h151v-218q150 -29 233.5 -152t83.5 -312h-283q0 120 -34.5 179t-88.5 59t-84 -46.5t-30 -122.5t31 -123t118 -98 q160 -76 264.5 -168.5t104.5 -298.5q0 -169 -89.5 -275t-247.5 -127v-199h-150v199q-173 25 -267 147.5t-94 326.5z" />
<glyph unicode="%" horiz-adv-x="1308" d="M97 1105v71q0 133 73.5 217t198.5 84t199.5 -82.5t74.5 -222.5v-73q0 -135 -73.5 -217t-197.5 -82t-199.5 82t-75.5 223zM281 1099q0 -60 25.5 -95.5t65.5 -35.5t63 37t23 97v74q0 58 -24 95.5t-64 37.5t-64.5 -37.5t-24.5 -98.5v-74zM288 185l597 1138l135 -76 l-598 -1138zM671 283v74q0 135 74.5 217.5t198.5 82.5t199 -81.5t75 -223.5v-73q0 -134 -73 -216.5t-199 -82.5t-200.5 83t-74.5 220zM856 279q0 -56 26.5 -94t63.5 -38q83 0 87 119v91q0 59 -24.5 95.5t-64.5 36.5q-88 0 -88 -153v-57z" />
<glyph unicode="&#x26;" horiz-adv-x="1186" d="M72 392q0 103 46.5 186.5t174.5 188.5q-55 87 -87 164.5t-32 160.5q0 171 95 277.5t246 106.5t243.5 -98.5t92.5 -241.5q0 -190 -159 -317l-80 -65l187 -261q35 103 35 222h239q0 -281 -110 -452l188 -263h-321l-54 76q-130 -96 -306 -96t-287 113t-111 299zM356 417 q0 -92 40 -147.5t108 -55.5t138 52l-230 325l-6 -5q-50 -77 -50 -169zM426 1094q0 -68 68 -171l47 36q42 32 60 66.5t18 89.5t-28.5 90.5t-70.5 35.5t-68 -39.5t-26 -107.5z" />
<glyph unicode="'" horiz-adv-x="330" d="M62 983v553h213v-148l-29 -405h-184z" />
<glyph unicode="(" horiz-adv-x="662" d="M120 551v41q0 473 157 717t276 306l53 -156q-113 -106 -179 -325.5t-69 -507.5v-60q0 -300 65.5 -527.5t182.5 -339.5l-53 -154q-118 62 -273.5 300.5t-159.5 705.5z" />
<glyph unicode=")" horiz-adv-x="662" d="M56 -301q114 109 180 333.5t68 508.5v53q0 291 -65.5 520.5t-182.5 346.5l52 154q77 -39 157.5 -130t145.5 -225t105 -301.5t40 -395.5t-59.5 -436t-165 -365t-223.5 -217z" />
<glyph unicode="*" horiz-adv-x="930" d="M27 1051l60 182l310 -126l-19 349h196l-20 -356l304 123l59 -183l-320 -90l210 -265l-160 -113l-182 291l-181 -282l-159 109l217 272z" />
<glyph unicode="+" horiz-adv-x="973" d="M64 553v263h288v390h268v-390h283v-263h-283v-407h-268v407h-288z" />
<glyph unicode="," horiz-adv-x="503" d="M36 -288l38 71q64 118 66 238v225h246l-1 -201q-1 -106 -54 -220t-144 -192z" />
<glyph unicode="-" horiz-adv-x="744" d="M123 506v236h489v-236h-489z" />
<glyph unicode="." horiz-adv-x="596" d="M126 144q0 68 45.5 112t117.5 44t119 -43t47 -113t-47.5 -112.5t-117.5 -42.5t-117 43.5t-47 111.5z" />
<glyph unicode="/" horiz-adv-x="678" d="M-1 -125l437 1581h207l-437 -1581h-207z" />
<glyph unicode="0" d="M95 581v275q0 301 109 460.5t313 159.5t313 -158t111 -451v-265q0 -302 -109.5 -462t-311.5 -160t-311.5 155.5t-113.5 445.5zM377 563q0 -348 142 -348q134 0 138 327v355q0 344 -140 344q-135 0 -140 -315v-363z" />
<glyph unicode="1" d="M157 1005v236l531 217h30v-1458h-284v1112z" />
<glyph unicode="2" d="M71 997q0 134 55.5 245t156 172.5t227.5 61.5q195 0 302.5 -107.5t107.5 -305.5q0 -123 -59.5 -249.5t-215.5 -311.5l-187 -267h495v-235h-858v200l394 501q146 202 146 333q0 97 -33.5 152t-99.5 55t-106.5 -64t-40.5 -180h-284z" />
<glyph unicode="3" d="M67 399h283q0 -78 41 -131t109 -53t110.5 54t42.5 144q0 215 -167 216h-139v228h137q78 0 114.5 54.5t36.5 143.5t-37.5 137.5t-98.5 48.5t-98.5 -46t-37.5 -116h-283q0 114 52.5 204.5t147 141.5t209.5 51q201 0 315 -111t114 -304q0 -99 -51.5 -183.5t-135.5 -129.5 q204 -87 204 -340q0 -194 -123.5 -311t-317.5 -117t-310.5 115.5t-116.5 303.5z" />
<glyph unicode="4" d="M63 498l494 958h284v-906h124v-235h-124v-315h-283v315h-482zM338 550h220v487z" />
<glyph unicode="5" d="M95 406h280q7 -91 45 -141t103 -50t103 67.5t38 197.5t-45.5 194t-126.5 64t-125 -55l-18 -25l-225 58l72 740h705v-242h-473l-26 -312q82 55 169 55q180 0 277.5 -128.5t97.5 -354.5t-116 -360t-310 -134q-115 0 -213 54.5t-154.5 151.5t-57.5 220z" />
<glyph unicode="6" d="M100 567v105q0 241 75.5 422t218 278.5t332.5 98.5h44v-240h-16q-159 -1 -252.5 -95.5t-113.5 -264.5q90 104 238 104t242.5 -135t94.5 -360q0 -143 -54 -258t-151.5 -178.5t-220.5 -63.5q-198 0 -317.5 159t-119.5 428zM382 521q0 -154 41 -230t109 -76t108.5 73.5 t40.5 189.5t-42.5 189.5t-104.5 73.5q-110 0 -152 -118v-102z" />
<glyph unicode="7" d="M68 1221v235h881v-163l-460 -1293h-299l462 1221h-584z" />
<glyph unicode="8" d="M98 399q0 121 52 211t143 140q-80 49 -125 131t-45 188q0 191 107 299t288 108t287 -109t106 -298q0 -106 -45 -188t-124 -131q90 -51 142 -140.5t52 -210.5q0 -194 -112 -306.5t-305 -112.5t-307 112.5t-114 306.5zM381 421q0 -97 36.5 -151.5t100.5 -54.5t99 54.5 t35 151.5t-36 152t-99 55t-99.5 -55t-36.5 -152zM407 1055q0 -87 28 -139.5t84 -52.5t83 52.5t27 138.5q0 187 -112 187q-54 0 -82 -49.5t-28 -136.5z" />
<glyph unicode="9" d="M90 961q0 144 54 263.5t150.5 185.5t217.5 66t217 -73t149 -209.5t53 -310.5v-103q0 -372 -163.5 -581.5t-463.5 -213.5h-29v244h19q166 1 249.5 86t100.5 248q-90 -92 -197 -92q-166 0 -261.5 133.5t-95.5 356.5zM372 959q0 -121 39 -193.5t115 -72.5t122 112v130 q0 143 -39 224.5t-101 81.5t-99 -80.5t-37 -201.5z" />
<glyph unicode=":" horiz-adv-x="562" d="M128 144q0 68 46 112t117 44q72 0 119 -44t47 -112q1 -70 -47 -112t-118 -43q-70 0 -118 43q-46 44 -46 112zM128 962q0 68 46 112t117 44q72 0 119 -44t47 -112q1 -70 -47 -112t-118 -43q-70 0 -118 43q-46 44 -46 112z" />
<glyph unicode=";" horiz-adv-x="522" d="M60 -288l38 71q64 118 66 238v225h246l-1 -201q-1 -106 -54 -220t-144 -192zM112 962q0 68 46 112t117 44q72 0 119 -44t47 -112q1 -70 -47 -112t-118 -43q-70 0 -118 43q-46 44 -46 112z" />
<glyph unicode="&#x3c;" horiz-adv-x="915" d="M61 500v238l728 365v-282l-453 -204l453 -199v-282z" />
<glyph unicode="=" horiz-adv-x="1030" d="M132 311v237h763v-237h-763zM132 744v238h763v-238h-763z" />
<glyph unicode="&#x3e;" horiz-adv-x="930" d="M121 135v280l462 206l-462 201v280l738 -364v-238z" />
<glyph unicode="?" horiz-adv-x="918" d="M50 1068q2 194 108.5 301t290.5 107t287 -103.5t103 -273.5t-127 -318l-83 -94q-41 -49 -58 -101.5t-19 -137.5h-248q0 140 27.5 222.5t100.5 161.5t98 132t25 107q0 167 -108 167q-48 0 -80 -46t-34 -124h-283zM278 143q0 67 43.5 110t111.5 43t111 -44t43 -110 t-42.5 -110t-112.5 -44t-112 44t-42 111z" />
<glyph unicode="@" horiz-adv-x="1569" d="M84 456q9 283 105.5 502t261.5 338t375 119t362.5 -106.5t229.5 -307.5t68 -464q-5 -168 -79 -363t-300 -195q-143 0 -204 134q-83 -131 -209 -131t-194 124t-52 306t71 310t140 198t199 70t201 -68l53 -41l-44 -578q-14 -162 75 -162q72 0 120 111t52 278 q13 347 -115 534.5t-372 187.5t-392 -213t-162 -573t115.5 -551.5t381.5 -191.5q156 0 279 68l34 -155q-52 -40 -140 -64.5t-176 -24.5q-225 0 -382 106.5t-234 313t-68 489.5zM666 464q-12 -166 14.5 -234t83.5 -68q32 0 62 41t49 112l36 491q-26 7 -48 7 q-173 -1 -197 -349z" />
<glyph unicode="A" horiz-adv-x="1223" d="M22 0l455 1456h269l458 -1456h-314l-78 298h-401l-78 -298h-311zM475 543h272l-136 519z" />
<glyph unicode="B" horiz-adv-x="1149" d="M117 0v1456h450q228 0 346.5 -101.5t118.5 -297.5q0 -111 -49 -191t-134 -117q98 -28 151 -112.5t53 -208.5q0 -212 -116.5 -320t-337.5 -108h-482zM411 244h188q79 0 120 49t41 139q0 196 -142 201h-207v-389zM411 847h153q173 0 173 179q0 99 -40 142t-130 43h-156 v-364z" />
<glyph unicode="C" horiz-adv-x="1168" d="M90 606v245q0 300 136 462.5t376 162.5q469 0 504 -515h-295q-4 154 -47.5 212.5t-160.5 58.5t-166 -82.5t-52 -271.5v-275q0 -217 48.5 -298t165.5 -81t161 56.5t50 204.5h294q-11 -249 -140 -377t-370 -128t-372.5 162.5t-131.5 463.5z" />
<glyph unicode="D" horiz-adv-x="1157" d="M117 0v1456h385q255 0 406.5 -162t154.5 -444v-236q0 -287 -151.5 -450.5t-417.5 -163.5h-377zM411 244h88q147 0 207 77.5t63 267.5v253q0 204 -57 284.5t-194 84.5h-107v-967z" />
<glyph unicode="E" horiz-adv-x="1005" d="M117 0v1456h834v-245h-540v-344h458v-237h-458v-386h542v-244h-836z" />
<glyph unicode="F" horiz-adv-x="974" d="M117 0v1456h806v-245h-512v-373h457v-244h-457v-594h-294z" />
<glyph unicode="G" horiz-adv-x="1198" d="M95 588v262q0 301 131.5 463.5t375.5 162.5t365 -117t140 -367h-286q-12 139 -58.5 189.5t-154.5 50.5t-162 -87t-56 -277v-264q0 -199 59.5 -289.5t195.5 -90.5q87 0 141 35l26 18v267h-206v222h501v-601q-171 -185 -479 -185q-251 0 -390 155.5t-143 452.5z" />
<glyph unicode="H" horiz-adv-x="1257" d="M117 0v1456h294v-589h434v589h293v-1456h-293v623h-434v-623h-294z" />
<glyph unicode="I" horiz-adv-x="554" d="M130 0v1456h294v-1456h-294z" />
<glyph unicode="J" horiz-adv-x="1004" d="M46 430h295q-1 -206 127 -206t128 238v994h294v-1008q0 -212 -118 -340t-311 -128t-304 119t-111 331z" />
<glyph unicode="K" horiz-adv-x="1133" d="M117 0v1456h294v-635l93 157l271 478h360l-417 -640l424 -816h-349l-266 562l-116 -146v-416h-294z" />
<glyph unicode="L" horiz-adv-x="980" d="M117 0v1456h294v-1212h516v-244h-810z" />
<glyph unicode="M" horiz-adv-x="1553" d="M117 0v1456h384l275 -1053l274 1053h384v-1456h-295v394l27 607l-291 -1001h-200l-291 1001l27 -607v-394h-294z" />
<glyph unicode="N" horiz-adv-x="1254" d="M117 0v1456h294l431 -956v956h293v-1456h-294l-430 955v-955h-294z" />
<glyph unicode="O" horiz-adv-x="1236" d="M92 590v249q0 300 139 468.5t384 168.5t385 -165.5t142 -464.5v-249q0 -293 -138 -455t-384 -162t-386 160.5t-142 449.5zM386 597q0 -191 57 -281.5t174 -90.5t173 88.5t57 274.5v253q0 197 -55.5 293t-173.5 96t-174 -92.5t-58 -281.5v-259z" />
<glyph unicode="P" horiz-adv-x="1165" d="M117 0v1456h496q216 0 344.5 -134t128.5 -348t-127 -338t-352 -124h-196v-512h-294zM411 757h202q84 0 130 55t46 162t-47 171.5t-126 65.5h-205v-454z" />
<glyph unicode="Q" horiz-adv-x="1236" d="M90 611v228q0 300 139 468.5t383 168.5t384 -162t145 -455v-244q0 -361 -195 -525l201 -180l-185 -170l-268 245l-77 -5q-247 0 -386.5 167.5t-140.5 463.5zM384 615q0 -200 57.5 -295t175.5 -95q227 0 229 383v233q0 199 -57 294t-174 95t-173 -92.5t-58 -281.5v-241z " />
<glyph unicode="R" horiz-adv-x="1134" d="M118 0v1456h469q221 0 341.5 -114.5t120.5 -325.5q0 -290 -211 -406l255 -596v-14h-316l-219 532h-146v-532h-294zM412 777h167q88 0 132 58.5t44 156.5q0 219 -171 219h-172v-434z" />
<glyph unicode="S" horiz-adv-x="1106" d="M74 459h295q0 -126 49 -183t160 -57q154 0 154 163q0 89 -45.5 134.5t-165.5 94.5q-219 83 -315 194.5t-96 279.5t130.5 279.5t331.5 111.5q134 0 239 -56.5t161.5 -159.5t56.5 -234h-293q0 102 -43 155.5t-123 53.5t-123 -45.5t-43 -113.5t48 -117t170 -101 q213 -77 309.5 -188.5t96.5 -293.5t-121 -289t-329 -107q-141 0 -257 58t-181.5 166t-65.5 255z" />
<glyph unicode="T" horiz-adv-x="1112" d="M51 1211v245h1009v-245h-360v-1211h-295v1211h-354z" />
<glyph unicode="U" horiz-adv-x="1170" d="M105 455v1001h296v-1002q0 -124 40 -177t145 -53t144 52.5t40 172.5v1007h294v-1008q-2 -227 -125 -347.5t-355 -120.5t-355.5 122t-123.5 353z" />
<glyph unicode="V" horiz-adv-x="1184" d="M21 1456h326l244 -1056l245 1056h328l-420 -1456h-306z" />
<glyph unicode="W" horiz-adv-x="1534" d="M44 1456h293l137 -914l171 914h247l171 -915l138 915h291l-259 -1456h-295l-170 858l-168 -858h-296z" />
<glyph unicode="X" horiz-adv-x="1146" d="M33 0l350 734l-343 722h337l196 -500l196 500h337l-342 -722l350 -734h-341l-200 509l-199 -509h-341z" />
<glyph unicode="Y" horiz-adv-x="1111" d="M16 1456h320l220 -654l219 654h320l-390 -928v-528h-298v528z" />
<glyph unicode="Z" horiz-adv-x="1086" d="M72 1211v245h939v-173l-589 -1039h600v-244h-944v177l594 1034h-600z" />
<glyph unicode="[" horiz-adv-x="540" d="M110 -339v2034h389v-224h-105v-1587h105v-223h-389z" />
<glyph unicode="\" horiz-adv-x="781" d="M10 1456h289l510 -1581h-289z" />
<glyph unicode="]" horiz-adv-x="540" d="M34 -116h106v1587h-106v224h389v-2034h-389v223z" />
<glyph unicode="^" horiz-adv-x="800" d="M49 729l252 727h203l251 -727h-221l-132 455l-131 -455h-222z" />
<glyph unicode="_" horiz-adv-x="819" d="M21 0h775v-228h-775v228z" />
<glyph unicode="`" horiz-adv-x="678" d="M52 1536h317l198 -310h-239z" />
<glyph unicode="a" horiz-adv-x="964" d="M72 316q0 156 108.5 249.5t312.5 95.5h86v87q0 133 -98 133q-106 0 -106 -124h-283q0 150 112.5 247.5t287.5 97.5t272.5 -92.5t97.5 -264.5v-509q2 -140 40 -219v-17h-285q-12 25 -24 84q-76 -104 -209 -104t-222.5 90t-89.5 246zM356 322q0 -120 92 -120t131 64v225 h-68q-72 0 -113.5 -46t-41.5 -123z" />
<glyph unicode="b" horiz-adv-x="1014" d="M103 0v1536h283v-542q80 108 211 108q180 0 264 -130.5t86 -382.5v-83q0 -263 -84 -394.5t-264 -131.5q-141 0 -226 127l-9 -107h-261zM386 291q38 -76 126 -76t119 53t33 206v103q0 171 -33 229.5t-119 58.5t-126 -81v-493z" />
<glyph unicode="c" horiz-adv-x="942" d="M69 493v86q0 255 108.5 389t304.5 134t298.5 -110.5t104.5 -313.5h-266q-1 91 -30 140t-99 49t-102.5 -52.5t-34.5 -203.5v-110q0 -132 13 -184.5t43 -77t85 -24.5q123 0 125 160h266q-2 -177 -109 -286t-276 -109q-209 0 -319 130t-112 383z" />
<glyph unicode="d" horiz-adv-x="1015" d="M65 492v82q0 266 90 397t262 131q125 0 208 -108v542h285v-1536h-257l-13 110q-87 -130 -224 -130q-170 0 -259.5 130t-91.5 382zM349 503q0 -160 34.5 -223.5t116.5 -63.5t125 75v494q-42 80 -123 80t-117 -63t-36 -224v-75z" />
<glyph unicode="e" horiz-adv-x="980" d="M78 482v86q0 256 112 395t321 139q408 0 412 -517v-139h-563q6 -120 53 -175.5t145 -55.5q142 0 237 97l111 -171q-52 -72 -151 -116.5t-215 -44.5q-218 0 -340 130t-122 372zM362 644h283v26q-2 97 -32 147t-104 50t-107.5 -53t-39.5 -170z" />
<glyph unicode="f" horiz-adv-x="671" d="M37 869v213h131v97q1 179 94.5 278.5t258.5 99.5q50 0 128 -20l-2 -226q-29 9 -69 9q-126 0 -126 -150v-88h169v-213h-169v-869h-284v869h-131z" />
<glyph unicode="g" horiz-adv-x="1030" d="M69 494v80q0 266 96 397t256 131t240 -116l11 96h255v-1082q0 -207 -116 -316.5t-333 -109.5q-89 0 -187 35.5t-146 90.5l95 196q90 -95 246 -95t158 192v93q-81 -106 -211 -106q-173 0 -267.5 134.5t-96.5 379.5zM352 503q0 -150 39 -218.5t125 -68.5t128 63v517 q-44 69 -128 69t-124 -69t-40 -222v-71z" />
<glyph unicode="h" horiz-adv-x="1008" d="M96 0v1536h283v-549q92 115 226 115q301 0 303 -414v-688h-284v685q0 95 -29 137.5t-101 42.5t-115 -71v-794h-283z" />
<glyph unicode="i" horiz-adv-x="516" d="M103 1362q0 66 42 108t112 42t112 -42t42 -108t-41.5 -108.5t-112.5 -42.5t-112.5 42.5t-41.5 108.5zM116 0v1082h284v-1082h-284z" />
<glyph unicode="j" horiz-adv-x="503" d="M-54 -189q47 -9 75 -9q94 0 96 132v1148h284v-1140q0 -185 -85 -282t-241 -97q-66 0 -128 17zM98 1362q0 66 42 108t112 42t112 -42t42 -108t-41.5 -108.5t-112.5 -42.5t-112.5 42.5t-41.5 108.5z" />
<glyph unicode="k" horiz-adv-x="980" d="M103 0v1536h283v-830l35 52l196 324h337l-314 -446l344 -636h-324l-198 417l-76 -85v-332h-283z" />
<glyph unicode="l" horiz-adv-x="516" d="M116 0v1536h284v-1536h-284z" />
<glyph unicode="m" horiz-adv-x="1519" d="M104 0v1082h265l8 -100q95 120 254 120t226 -146q93 146 265 146q284 0 291 -393v-709h-283v691q0 94 -26 134t-96 40t-110 -97l2 -34v-734h-283v689q0 93 -25.5 134.5t-93.5 41.5t-111 -79v-786h-283z" />
<glyph unicode="n" horiz-adv-x="1008" d="M96 0v1082h266l8 -107q96 127 251 127q279 0 287 -391v-711h-284v690q0 92 -27.5 133.5t-100.5 41.5t-116 -79v-786h-284z" />
<glyph unicode="o" horiz-adv-x="1019" d="M70 507v69q0 246 116 386t322 140t322 -140t116 -388v-69q0 -247 -115 -386t-323 -139t-323 139.5t-115 387.5zM354 505q0 -290 155 -290q143 0 154 242l1 119q0 291 -157 291q-72 0 -112.5 -71.5t-40.5 -219.5v-71z" />
<glyph unicode="p" horiz-adv-x="1014" d="M103 -416v1498h262l10 -99q81 119 221 119q346 0 350 -512v-83q0 -255 -87.5 -391t-260.5 -136q-132 0 -212 107v-503h-283zM386 285q38 -70 126 -70t120 71t32 221v71q0 157 -35 222t-119 65t-124 -73v-507z" />
<glyph unicode="q" horiz-adv-x="1018" d="M65 494v82q0 526 353 526q142 0 226 -128l18 108h247v-1498h-284v500q-79 -104 -208 -104q-171 0 -260.5 132.5t-91.5 381.5zM349 505q0 -157 34 -223.5t118 -66.5t124 67v515q-40 70 -123 70t-117.5 -65t-35.5 -217v-80z" />
<glyph unicode="r" horiz-adv-x="679" d="M102 0v1082h267l8 -117q67 137 185 137q48 0 78 -13l-3 -280l-94 8q-116 0 -157 -102v-715h-284z" />
<glyph unicode="s" horiz-adv-x="930" d="M58 335h269q2 -74 34.5 -111t106.5 -37q114 0 114 103q0 36 -34.5 66.5t-153.5 82.5q-175 71 -240.5 147t-65.5 204t102 220t276 92t281 -92t107 -247h-283q0 132 -110 132q-45 0 -74 -28t-29 -71t32 -70.5t151 -78.5q173 -64 244.5 -142.5t71.5 -213.5t-109 -223 t-286 -88q-119 0 -210 46.5t-142.5 129.5t-51.5 179z" />
<glyph unicode="t" horiz-adv-x="629" d="M24 869v213h125v266h283v-266h145v-213h-145v-537q0 -64 17 -88t63 -24t72 7l-2 -220q-72 -27 -156 -27q-274 0 -277 314v575h-125z" />
<glyph unicode="u" horiz-adv-x="1008" d="M96 381v701h283v-708q2 -158 105 -158q97 0 140 84v782h285v-1082h-266l-8 99q-89 -119 -237 -119t-225 102.5t-77 298.5z" />
<glyph unicode="v" horiz-adv-x="920" d="M25 1082h296l137 -682l137 682h295l-297 -1082h-270z" />
<glyph unicode="w" horiz-adv-x="1296" d="M34 1082h272l96 -608l144 608h201l144 -607l97 607h271l-224 -1082h-235l-153 626l-153 -626h-236z" />
<glyph unicode="x" horiz-adv-x="927" d="M32 0l256 553l-245 529h301l121 -321l126 321h300l-247 -529l256 -553h-301l-133 339l-132 -339h-302z" />
<glyph unicode="y" horiz-adv-x="914" d="M16 1082h304l130 -611l144 611h302l-356 -1244q-80 -275 -301 -275q-51 0 -116 19v221l33 -1q66 0 99.5 25.5t50.5 88.5l22 73z" />
<glyph unicode="z" horiz-adv-x="927" d="M80 0v177l418 669h-408v236h748v-171l-422 -676h428v-235h-764z" />
<glyph unicode="{" horiz-adv-x="610" d="M56 514v208q137 0 137 212v218q8 347 309 445l54 -162q-100 -48 -109 -249l-1 -250q0 -225 -159 -317q159 -93 159 -321t2 -261q11 -188 107 -234l-53 -163q-302 98 -309 449v216q0 209 -137 209z" />
<glyph unicode="|" horiz-adv-x="519" d="M173 -270v1726h176v-1726h-176z" />
<glyph unicode="}" horiz-adv-x="610" d="M53 1435l54 162q305 -99 309 -456v-208q0 -211 138 -211v-208q-138 0 -138 -211v-217q-8 -348 -309 -446l-53 163q56 26 83 96.5t27 205.5v196q0 229 163 317q-163 89 -163 318t-1 250q-9 202 -110 249z" />
<glyph unicode="~" horiz-adv-x="1141" d="M99 415q0 185 80 299t205 114t237 -131q58 -84 107 -84t78 52t29 129h206q0 -185 -81 -302t-209 -117q-60 0 -112 27.5t-120 104.5q-61 83 -109 83t-75 -51.5t-27 -126.5z" />
<glyph unicode="&#xa1;" horiz-adv-x="555" d="M125 946q0 67 42.5 111t112.5 44t112 -44.5t42 -110.5t-43 -109.5t-111 -43.5t-111.5 43t-43.5 110zM128 -369l33 1007h235l33 -1007h-301z" />
<glyph unicode="&#xa2;" horiz-adv-x="1042" d="M98 532v22q0 218 87 361t246 177v226h191v-227q135 -30 212 -138.5t79 -274.5h-266q0 87 -33 138t-93 51q-112 0 -133 -171q-7 -56 -7 -202q0 -280 135 -279q129 0 131 160h266q-2 -143 -81.5 -248t-209.5 -136v-236h-191v235q-159 34 -246 176.5t-87 365.5z" />
<glyph unicode="&#xa3;" horiz-adv-x="1074" d="M104 575v237h121l-6 227q0 202 107.5 319t289.5 117t287.5 -112t105.5 -306h-279q0 84 -31 129t-79 45t-77.5 -48t-29.5 -144l8 -227h250v-237h-242l5 -137q-2 -123 -56 -194h534v-244h-906v244h74q49 15 54 125l1 52l-4 154h-127z" />
<glyph unicode="&#xa4;" horiz-adv-x="1417" d="M80 118l135 137q-100 157 -100 357t109 361l-144 147l141 144l142 -145q155 115 349 115t348 -117l144 148l142 -145l-148 -151q107 -159 107 -357t-98 -353l139 -141l-142 -145l-132 134q-160 -127 -362 -127t-360 126l-129 -132zM301 608q0 -118 54 -219.5t149.5 -160 t205.5 -58.5t206 58.5t150 160t54 219.5t-54 219t-149 159t-207 58t-206.5 -58t-148.5 -159t-54 -219z" />
<glyph unicode="&#xa5;" horiz-adv-x="1101" d="M31 1456h322l198 -550l197 550h322l-309 -714h177v-176h-244v-114h244v-175h-244v-277h-294v277h-264v175h264v114h-264v176h204z" />
<glyph unicode="&#xa6;" horiz-adv-x="517" d="M127 -270v795h262v-795h-262zM127 698v758h262v-758h-262z" />
<glyph unicode="&#xa7;" horiz-adv-x="1131" d="M94 -34h283q0 -181 184 -181q81 0 122 37t41 99t-44.5 101t-184.5 90q-225 71 -312.5 168t-87.5 264t137 260q-119 104 -119 284t121.5 284t331.5 104t326 -113.5t116 -313.5h-283q0 88 -43.5 140t-121.5 52t-120.5 -39.5t-42.5 -107.5t42.5 -105.5t181.5 -84.5 q157 -47 281 -129.5t124 -292.5q0 -177 -138 -269q118 -104 118 -285q0 -182 -119.5 -280.5t-334.5 -98.5t-336.5 108t-121.5 309zM377 568q0 -82 43.5 -122.5t172.5 -89.5l102 -35q52 48 52 123t-43 118t-179 98l-103 36q-45 -46 -45 -128z" />
<glyph unicode="&#xa8;" horiz-adv-x="959" d="M93 1366q0 54 40.5 90.5t98.5 36.5t98.5 -36.5t40.5 -90.5t-40.5 -91t-98.5 -37t-98.5 37t-40.5 91zM582 1366q0 53 40.5 89.5t98.5 36.5t98.5 -36.5t40.5 -89.5t-38.5 -90.5t-100.5 -37.5t-100.5 37.5t-38.5 90.5z" />
<glyph unicode="&#xa9;" horiz-adv-x="1606" d="M86 728q0 202 93.5 375.5t259 273t357.5 99.5t357.5 -99.5t259 -272.5t93.5 -376t-95 -376.5t-259.5 -272.5t-356.5 -99t-356.5 100t-258.5 273t-94 375zM208 729q0 -170 77.5 -314t214 -227.5t296.5 -83.5t297.5 85t213.5 229t76 310t-75 309t-212 228.5t-298 85.5 t-297.5 -82t-214.5 -226t-78 -314zM433 675v113q0 174 95.5 280.5t255.5 106.5t247 -82.5t87 -231.5h-156q0 96 -46 137.5t-136 41.5t-140.5 -67.5t-51.5 -180.5v-123q0 -117 51 -184.5t141 -67.5t135.5 40.5t45.5 138.5h156q0 -152 -87.5 -233t-247.5 -81t-254.5 106.5 t-94.5 286.5z" />
<glyph unicode="&#xaa;" horiz-adv-x="805" d="M130 919q0 227 281 231h84v51q0 127 -84 127q-100 0 -100 -99l-165 14q0 102 73.5 167.5t190.5 65.5t184 -72t67 -204v-318q0 -98 22 -177h-168l-14 63q-61 -77 -161 -77t-155 61.5t-55 166.5zM296 923q0 -88 86 -88q59 0 113 56v142h-63q-136 0 -136 -110z" />
<glyph unicode="&#xab;" horiz-adv-x="920" d="M73 514v19l233 390h175l-192 -400l192 -399h-175zM414 514v19l233 390h175l-192 -400l192 -399h-175z" />
<glyph unicode="&#xac;" horiz-adv-x="993" d="M126 634v171h709v-431h-192v260h-517z" />
<glyph unicode="&#xad;" horiz-adv-x="744" d="M123 506v236h489v-236h-489z" />
<glyph unicode="&#xae;" horiz-adv-x="1606" d="M86 728q0 202 93.5 375.5t259 273t357.5 99.5t357.5 -99.5t259 -272.5t93.5 -376t-95 -376.5t-259.5 -272.5t-356.5 -99t-356.5 100t-258.5 273t-94 375zM208 729q0 -170 77.5 -314t214 -227.5t296.5 -83.5t297.5 85t213.5 229t76 310t-75 309t-212 228.5t-298 85.5 t-297.5 -82t-214.5 -226t-78 -314zM501 316v850h281q151 0 238 -68.5t87 -187.5t-112 -181q60 -31 84.5 -86t24.5 -163.5t17 -147.5v-16h-155q-13 34 -13 194q0 76 -33 109.5t-110 33.5h-158v-337h-151zM652 787h135q73 0 121.5 31.5t48.5 93.5t-35.5 91t-128.5 30h-141 v-246z" />
<glyph unicode="&#xaf;" horiz-adv-x="938" d="M153 1290v167h631v-167h-631z" />
<glyph unicode="&#xb0;" horiz-adv-x="796" d="M126 1200q0 116 81 196t191 80t189.5 -80t79.5 -196t-79.5 -194.5t-188.5 -78.5t-191 78.5t-82 194.5zM273 1200q0 -53 37.5 -88.5t89.5 -35.5t86 36t34 88t-34 90t-87 38t-89.5 -37.5t-36.5 -90.5z" />
<glyph unicode="&#xb1;" horiz-adv-x="968" d="M97 702v243h263v341h247v-341h260v-243h-260v-364h-247v364h-263zM113 1v238h731v-238h-731z" />
<glyph unicode="&#xb2;" horiz-adv-x="687" d="M61 1192q0 118 74 196.5t197 78.5t192.5 -64.5t69.5 -183.5q0 -77 -35.5 -137.5t-153.5 -164.5l-69 -85h273v-165h-533v138l240 257q81 92 81 156q0 84 -64 84q-34 0 -53.5 -30.5t-19.5 -79.5h-199z" />
<glyph unicode="&#xb3;" horiz-adv-x="687" d="M55 902h199q0 -32 21.5 -57t60.5 -25q78 0 78 89t-82 91h-82v137h75q78 0 78 87q0 36 -19.5 56.5t-49.5 20.5t-50.5 -15.5t-20.5 -44.5h-197q0 101 72.5 163t193.5 62t194.5 -60t73.5 -172t-116 -163q128 -41 128 -184q0 -106 -80 -169t-205 -63t-198.5 66.5t-73.5 180.5 z" />
<glyph unicode="&#xb4;" horiz-adv-x="680" d="M101 1226l196 310h318l-278 -310h-236z" />
<glyph unicode="&#xb5;" horiz-adv-x="1125" d="M132 -416v1498h282v-623q0 -127 28.5 -184.5t102.5 -57.5q100 0 144 86v779h284v-1082h-264l-4 51q-71 -72 -155 -72t-136 34v-429h-282z" />
<glyph unicode="&#xb6;" horiz-adv-x="892" d="M80 988q0 213 112 340.5t303 127.5h272v-1456h-211v520h-65q-125 0 -218.5 58t-143 165t-49.5 245z" />
<glyph unicode="&#xb7;" horiz-adv-x="583" d="M131 696q0 68 43.5 112t113.5 44t112.5 -44t42.5 -112t-43.5 -111.5t-111.5 -43.5t-112.5 43.5t-44.5 111.5z" />
<glyph unicode="&#xb8;" horiz-adv-x="511" d="M96 -136l27 143h211l-9 -58q121 -27 121 -173q0 -110 -79 -174t-226 -64l-6 167q73 0 73 82q0 40 -25.5 56t-86.5 21z" />
<glyph unicode="&#xb9;" horiz-adv-x="687" d="M135 1175v159l327 121h18v-786h-197v547z" />
<glyph unicode="&#xba;" horiz-adv-x="831" d="M114 1049v72q0 159 83 257t215 98t215 -96.5t83 -263.5v-72q0 -159 -81 -256.5t-215 -97.5t-217 97.5t-83 261.5zM281 1044q0 -98 35.5 -153t95.5 -55t95.5 54.5t35.5 156.5v74q0 97 -35.5 152t-95.5 55t-95 -53.5t-36 -150.5v-80z" />
<glyph unicode="&#xbb;" horiz-adv-x="921" d="M84 124l193 399l-193 400h177l233 -390v-19l-233 -390h-177zM432 124l193 399l-193 400h177l233 -390v-19l-233 -390h-177z" />
<glyph unicode="&#xbc;" horiz-adv-x="1275" d="M99 1170v159l327 121h18v-786h-197v547zM282 193l597 1138l135 -76l-598 -1138zM639 295l290 494h197v-462h64v-168h-64v-159h-197v159h-278zM824 327h105v201z" />
<glyph unicode="&#xbd;" horiz-adv-x="1357" d="M86 1176v159l327 121h18v-786h-197v547zM247 193l597 1138l135 -76l-598 -1138zM725 525q0 119 74 197t197 78q122 0 192 -64t70 -184q0 -78 -36 -138t-153 -164l-69 -85h273v-165h-533v138l240 257q81 92 81 156q0 84 -64 84q-33 -1 -53 -31t-20 -79h-199z" />
<glyph unicode="&#xbe;" horiz-adv-x="1443" d="M94 903h199q-1 -32 21 -57t61 -25q78 0 78 89t-82 91h-82v137h75q78 0 78 87q0 37 -20 57t-50 20t-50 -16t-20 -44h-197q1 101 73 163t193 62t195 -60q74 -61 73 -173q0 -112 -116 -162q128 -41 128 -184q0 -106 -80 -169t-205 -63q-124 0 -198 66t-74 181zM418 193 l597 1138l135 -76l-598 -1138zM776 295l290 494h197v-462h64v-168h-64v-159h-197v159h-278zM961 327h105v201z" />
<glyph unicode="&#xbf;" horiz-adv-x="915" d="M73 -8q0 174 128 325l87 101q33 40 49.5 86t18.5 138h250q0 -128 -27 -212t-100 -165q-78 -92 -100.5 -144.5t-22.5 -122.5t28 -107.5t78 -37.5t84 46t34 124h284q-2 -192 -108 -300t-292 -108t-288.5 101.5t-102.5 275.5zM330 948q0 66 42 110t112 44t112.5 -44 t42.5 -111t-43.5 -110t-111.5 -43t-111 44t-43 110z" />
<glyph unicode="&#xc0;" horiz-adv-x="1223" d="M22 0l455 1456h269l458 -1456h-314l-78 298h-401l-78 -298h-311zM243 1846h317l198 -310h-239zM475 543h272l-136 519z" />
<glyph unicode="&#xc1;" horiz-adv-x="1223" d="M22 0l455 1456h269l458 -1456h-314l-78 298h-401l-78 -298h-311zM475 543h272l-136 519zM475 1536l196 310h318l-278 -310h-236z" />
<glyph unicode="&#xc2;" horiz-adv-x="1223" d="M22 0l455 1456h269l458 -1456h-314l-78 298h-401l-78 -298h-311zM273 1554v16l260 276h162l265 -280v-12h-221l-125 144l-125 -144h-216zM475 543h272l-136 519z" />
<glyph unicode="&#xc3;" horiz-adv-x="1223" d="M22 0l455 1456h269l458 -1456h-314l-78 298h-401l-78 -298h-311zM287 1565q0 111 57 189t140 79q40 0 102 -35q62 -34 84 -42t46 -8t44 24t19 71l159 -12q0 -111 -56 -189t-143 -77q-33 0 -57 9t-68 37t-64 34q-18 6 -42 6q-24 -1 -43 -25q-18 -24 -18 -70zM475 543h272 l-136 519z" />
<glyph unicode="&#xc4;" horiz-adv-x="1223" d="M22 0l455 1456h269l458 -1456h-314l-78 298h-401l-78 -298h-311zM229 1676q1 54 41 90t98 37q58 -1 98 -37t41 -90q-1 -54 -41 -92q-40 -36 -98 -36t-98 36q-40 38 -41 92zM475 543h272l-136 519zM718 1676q0 54 40 90t99 36t99 -36t40 -90q0 -52 -38 -90t-101 -38 t-101 38t-38 90z" />
<glyph unicode="&#xc5;" horiz-adv-x="1223" d="M22 0l455 1456h269l458 -1456h-314l-78 298h-401l-78 -298h-311zM392 1732q0 84 65 144t157 59t158 -59t66 -144t-64 -145q-64 -58 -160 -58t-159 59q-63 60 -63 144zM475 543h272l-136 519zM508 1730q0 -47 30 -77t79 -30q48 0 77 31q29 30 29 76q1 46 -29 78t-78 31 q-48 0 -78 -31t-30 -78z" />
<glyph unicode="&#xc6;" horiz-adv-x="1674" d="M15 0l643 1456h892v-238h-485l13 -352h404v-238h-396l13 -390h503v-238h-778l-12 333h-333l-132 -333h-332zM577 582h226l-18 524z" />
<glyph unicode="&#xc7;" horiz-adv-x="1168" d="M90 606v245q0 301 136 463t376 162q469 0 504 -515h-295q-3 155 -47 213t-161 58t-166 -82t-52 -272v-275q1 -217 49 -298t165 -81t161 56t50 205h294q-11 -249 -140 -377q-99 -98 -261 -121l-6 -39q121 -27 121 -173q0 -110 -79 -174t-226 -64l-6 167q73 0 73 82 q0 40 -26 56t-86 21l24 126q-168 29 -270 153q-132 162 -132 464z" />
<glyph unicode="&#xc8;" horiz-adv-x="1005" d="M117 0v1456h834v-245h-540v-344h458v-237h-458v-386h542v-244h-836zM185 1849h317l198 -310h-239z" />
<glyph unicode="&#xc9;" horiz-adv-x="1005" d="M117 0v1456h834v-245h-540v-344h458v-237h-458v-386h542v-244h-836zM417 1539l196 310h318l-278 -310h-236z" />
<glyph unicode="&#xca;" horiz-adv-x="1005" d="M117 0v1456h834v-245h-540v-344h458v-237h-458v-386h542v-244h-836zM215 1557v16l260 276h162l265 -280v-12h-221l-125 144l-125 -144h-216z" />
<glyph unicode="&#xcb;" horiz-adv-x="1005" d="M117 0v1456h834v-245h-540v-344h458v-237h-458v-386h542v-244h-836zM171 1678q1 54 41 92q40 36 98 36t98 -36t41 -92q-1 -54 -41 -90t-98 -37q-58 1 -98 37t-41 90zM660 1679q0 53 40 89t99 37q59 -1 99 -37t40 -89t-38 -91t-101 -37q-63 -1 -101 37t-38 91z" />
<glyph unicode="&#xcc;" horiz-adv-x="554" d="M-95 1849h317l198 -310h-239zM130 0v1456h294v-1456h-294z" />
<glyph unicode="&#xcd;" horiz-adv-x="554" d="M130 0v1456h294v-1456h-294zM136 1539l196 310h318l-278 -310h-236z" />
<glyph unicode="&#xce;" horiz-adv-x="554" d="M-65 1557v16l260 276h162l265 -280v-12h-221l-125 144l-125 -144h-216zM130 0v1456h294v-1456h-294z" />
<glyph unicode="&#xcf;" horiz-adv-x="554" d="M-109 1678q1 54 41 92q40 36 98 36t98 -36t41 -92q-1 -54 -41 -90t-98 -37q-58 1 -98 37t-41 90zM130 0v1456h294v-1456h-294zM380 1679q0 53 40 89t99 37q59 -1 99 -37t40 -89t-38 -91t-101 -37q-63 -1 -101 37t-38 91z" />
<glyph unicode="&#xd0;" horiz-adv-x="1187" d="M-9 641v183h156v632h385q255 0 406.5 -162t154.5 -444v-236q0 -287 -151.5 -450.5t-417.5 -163.5h-377v641h-156zM441 244h102q139 3 196 81.5t60 266.5v250q0 204 -57 284.5t-194 84.5h-107v-387h157v-183h-157v-397z" />
<glyph unicode="&#xd1;" horiz-adv-x="1254" d="M117 0v1456h294l431 -956v956h293v-1456h-294l-430 955v-955h-294zM303 1565q0 111 57 189t140 79q40 0 102 -35q62 -34 84 -42t46 -8t44 24t19 71l159 -12q0 -111 -56 -189t-143 -77q-33 0 -57 9t-68 37t-64 34q-18 6 -42 6q-24 -1 -43 -25q-18 -24 -18 -70z" />
<glyph unicode="&#xd2;" horiz-adv-x="1236" d="M92 590v249q0 301 139 469t384 168t385 -166t142 -464v-249q0 -293 -138 -455t-384 -162t-386 160t-142 450zM247 1846h317l198 -310h-239zM386 597q0 -191 57 -281t174 -91q117 1 173 89t57 274v253q0 197 -56 293q-55 96 -173 96t-174 -92t-58 -282v-259z" />
<glyph unicode="&#xd3;" horiz-adv-x="1236" d="M92 590v249q0 301 139 469t384 168t385 -166t142 -464v-249q0 -293 -138 -455t-384 -162t-386 160t-142 450zM386 597q0 -191 57 -281t174 -91q117 1 173 89t57 274v253q0 197 -56 293q-55 96 -173 96t-174 -92t-58 -282v-259zM479 1536l196 310h318l-278 -310h-236z" />
<glyph unicode="&#xd4;" horiz-adv-x="1236" d="M92 590v249q0 301 139 469t384 168t385 -166t142 -464v-249q0 -293 -138 -455t-384 -162t-386 160t-142 450zM277 1554v16l260 276h162l265 -280v-12h-221l-125 144l-125 -144h-216zM386 597q0 -191 57 -281t174 -91q117 1 173 89t57 274v253q0 197 -56 293 q-55 96 -173 96t-174 -92t-58 -282v-259z" />
<glyph unicode="&#xd5;" horiz-adv-x="1236" d="M92 590v249q0 301 139 469t384 168t385 -166t142 -464v-249q0 -293 -138 -455t-384 -162t-386 160t-142 450zM291 1565q0 111 57 189t140 79q40 0 102 -35q62 -34 84 -42t46 -8t44 24t19 71l159 -12q0 -111 -56 -189t-143 -77q-33 0 -57 9t-68 37t-64 34q-18 6 -42 6 q-24 -1 -43 -25q-18 -24 -18 -70zM386 597q0 -191 57 -281t174 -91q117 1 173 89t57 274v253q0 197 -56 293q-55 96 -173 96t-174 -92t-58 -282v-259z" />
<glyph unicode="&#xd6;" horiz-adv-x="1236" d="M92 590v249q0 301 139 469t384 168t385 -166t142 -464v-249q0 -293 -138 -455t-384 -162t-386 160t-142 450zM233 1676q1 54 41 90t98 37q58 -1 98 -37t41 -90q-1 -54 -41 -92q-40 -36 -98 -36t-98 36q-40 38 -41 92zM386 597q0 -191 57 -281t174 -91q117 1 173 89 t57 274v253q0 197 -56 293q-55 96 -173 96t-174 -92t-58 -282v-259zM722 1676q0 54 40 90t99 36t99 -36t40 -90q0 -52 -38 -90t-101 -38t-101 38t-38 90z" />
<glyph unicode="&#xd7;" horiz-adv-x="960" d="M64 998l166 170l246 -299l247 299l165 -170l-259 -315l255 -309l-166 -170l-242 294l-242 -294l-166 170l255 309z" />
<glyph unicode="&#xd8;" horiz-adv-x="1233" d="M92 703v56q0 215 66.5 378.5t188 251t269.5 87.5t260 -70l55 112h178l-110 -223q158 -199 159 -535v-65q0 -214 -65.5 -376t-187 -250.5t-267.5 -88.5t-254 64l-68 -139h-177l120 245q-167 197 -167 553zM389 695q0 -139 22 -234l347 705q-55 60 -134 60 q-113 0 -173.5 -116t-61.5 -342v-73zM500 279q51 -51 126 -51q112 0 172.5 118t61.5 342v73q0 118 -19 213z" />
<glyph unicode="&#xd9;" horiz-adv-x="1170" d="M105 455v1001h296v-1002q0 -124 40 -177t145 -53t144 52t40 173v1007h294v-1008q-2 -228 -125 -348t-355 -120t-356 122t-123 353zM207 1846h317l198 -310h-239z" />
<glyph unicode="&#xda;" horiz-adv-x="1170" d="M105 455v1001h296v-1002q0 -124 40 -177t145 -53t144 52t40 173v1007h294v-1008q-2 -228 -125 -348t-355 -120t-356 122t-123 353zM439 1536l196 310h318l-278 -310h-236z" />
<glyph unicode="&#xdb;" horiz-adv-x="1170" d="M105 455v1001h296v-1002q0 -124 40 -177t145 -53t144 52t40 173v1007h294v-1008q-2 -228 -125 -348t-355 -120t-356 122t-123 353zM237 1554v16l260 276h162l265 -280v-12h-221l-125 144l-125 -144h-216z" />
<glyph unicode="&#xdc;" horiz-adv-x="1170" d="M105 455v1001h296v-1002q0 -124 40 -177t145 -53t144 52t40 173v1007h294v-1008q-2 -228 -125 -348t-355 -120t-356 122t-123 353zM193 1676q1 54 41 90t98 37q58 -1 98 -37t41 -90q-1 -54 -41 -92q-40 -36 -98 -36t-98 36q-40 38 -41 92zM682 1676q0 54 40 90t99 36 t99 -36t40 -90q0 -52 -38 -90t-101 -38t-101 38t-38 90z" />
<glyph unicode="&#xdd;" horiz-adv-x="1111" d="M16 1456h320l220 -654l219 654h320l-390 -928v-528h-298v528zM419 1536l196 310h318l-278 -310h-236z" />
<glyph unicode="&#xde;" horiz-adv-x="1092" d="M120 0v1456h283v-267h159q219 0 344 -122t125 -329t-125 -329.5t-343 -122.5h-160v-286h-283zM403 521h162q85 0 134 57.5t49 157.5t-48 159t-135 59h-158l-4 5v-438z" />
<glyph unicode="&#xdf;" horiz-adv-x="1145" d="M129 0v1101q0 218 111.5 338t297.5 120t286.5 -100t100.5 -270q0 -107 -44 -195t-44 -144t22.5 -92t120 -146.5t97.5 -272.5t-96 -260.5t-292 -98.5q-67 0 -131 16t-98 40l51 230q75 -51 173 -51q111 0 111 135q0 45 -25 86t-120 138t-95 244q0 96 45.5 187t45.5 165 t-31.5 114.5t-85.5 40.5q-114 0 -118 -209v-1116h-282z" />
<glyph unicode="&#xe0;" horiz-adv-x="964" d="M72 316q0 156 108 250q108 93 313 95h86v87q0 133 -98 133q-106 0 -106 -124h-283q0 149 112 247t288 98q174 0 272 -92t98 -265v-509q2 -140 40 -219v-17h-285q-12 25 -24 84q-76 -104 -209 -104q-132 0 -222 90t-90 246zM107 1536h317l198 -310h-239zM356 322 q0 -120 92 -120t131 64v225h-68q-71 0 -113 -46t-42 -123z" />
<glyph unicode="&#xe1;" horiz-adv-x="964" d="M72 316q0 156 108 250q108 93 313 95h86v87q0 133 -98 133q-106 0 -106 -124h-283q0 149 112 247t288 98q174 0 272 -92t98 -265v-509q2 -140 40 -219v-17h-285q-12 25 -24 84q-76 -104 -209 -104q-132 0 -222 90t-90 246zM339 1226l196 310h318l-278 -310h-236zM356 322 q0 -120 92 -120t131 64v225h-68q-71 0 -113 -46t-42 -123z" />
<glyph unicode="&#xe2;" horiz-adv-x="964" d="M72 316q0 156 108 250q108 93 313 95h86v87q0 133 -98 133q-106 0 -106 -124h-283q0 149 112 247t288 98q174 0 272 -92t98 -265v-509q2 -140 40 -219v-17h-285q-12 25 -24 84q-76 -104 -209 -104q-132 0 -222 90t-90 246zM137 1244v16l260 276h162l265 -280v-12h-221 l-125 144l-125 -144h-216zM356 322q0 -120 92 -120t131 64v225h-68q-71 0 -113 -46t-42 -123z" />
<glyph unicode="&#xe3;" horiz-adv-x="964" d="M72 316q0 156 108 250q108 93 313 95h86v87q0 133 -98 133q-106 0 -106 -124h-283q0 149 112 247t288 98q174 0 272 -92t98 -265v-509q2 -140 40 -219v-17h-285q-12 25 -24 84q-76 -104 -209 -104q-132 0 -222 90t-90 246zM151 1256q0 112 57 190t140 78q40 0 102 -35 t84 -43t46 -7t44 25t19 70l159 -12q0 -110 -56 -188t-143 -78q-33 0 -57 9t-68 37t-64 34q-18 6 -42 6t-43 -24q-18 -24 -18 -71zM356 322q0 -120 92 -120t131 64v225h-68q-71 0 -113 -46t-42 -123z" />
<glyph unicode="&#xe4;" horiz-adv-x="964" d="M72 316q0 156 108 250q108 93 313 95h86v87q0 133 -98 133q-106 0 -106 -124h-283q0 149 112 247t288 98q174 0 272 -92t98 -265v-509q2 -140 40 -219v-17h-285q-12 25 -24 84q-76 -104 -209 -104q-132 0 -222 90t-90 246zM93 1366q1 54 41 90t98 37q58 -1 98 -37t41 -90 q-1 -54 -41 -92q-40 -36 -98 -36t-98 36q-40 38 -41 92zM356 322q0 -120 92 -120t131 64v225h-68q-71 0 -113 -46t-42 -123zM582 1366q0 54 40 90t99 36t99 -36t40 -90q0 -52 -38 -90t-101 -38t-101 38t-38 90z" />
<glyph unicode="&#xe5;" horiz-adv-x="964" d="M72 316q0 156 108 250q108 93 313 95h86v87q0 133 -98 133q-106 0 -106 -124h-283q0 149 112 247t288 98q174 0 272 -92t98 -265v-509q2 -140 40 -219v-17h-285q-12 25 -24 84q-76 -104 -209 -104q-132 0 -222 90t-90 246zM256 1422q0 84 65 144t157 59t158 -59t66 -144 t-64 -145q-64 -58 -160 -58t-159 59q-63 60 -63 144zM356 322q0 -120 92 -120t131 64v225h-68q-71 0 -113 -46t-42 -123zM372 1420q0 -47 30 -77t79 -30q48 0 77 31q29 30 29 76q1 46 -29 78t-78 31q-48 0 -78 -31t-30 -78z" />
<glyph unicode="&#xe6;" horiz-adv-x="1491" d="M71 318q0 158 105.5 244t313.5 88h125v55q0 76 -29.5 119t-83.5 43t-86 -36t-32 -87l-282 19q0 150 113 244.5t288 94.5t275 -94q106 96 276 95t273 -131t105 -353v-170h-540q9 -115 60.5 -175t127.5 -60t129.5 16t125.5 61l72 -191q-48 -48 -145 -84t-199 -36 q-205 0 -324 136q-115 -136 -324 -136q-162 0 -253 90t-91 248zM354 315q0 -122 117 -122q72 0 144 67v200h-115q-63 0 -104.5 -40.5t-41.5 -104.5zM893 644h262v28q0 195 -112 195q-132 0 -150 -223z" />
<glyph unicode="&#xe7;" horiz-adv-x="942" d="M69 493v86q1 255 109 389t304 134t298 -110q103 -110 105 -314h-266q-1 91 -30 140t-99 49q-70 -1 -103 -53q-32 -52 -34 -203v-110q0 -133 13 -185t43 -76t85 -25q123 0 125 160h266q-2 -177 -109 -286q-76 -77 -183 -100l-6 -41q121 -27 121 -173q0 -110 -79 -174 t-226 -64l-6 167q73 0 73 82q0 40 -26 56t-86 21l24 129q-310 68 -313 501z" />
<glyph unicode="&#xe8;" horiz-adv-x="980" d="M78 482v86q0 256 112 395t321 139q408 0 412 -517v-139h-563q6 -120 53 -176t145 -55q142 0 237 97l111 -171q-52 -73 -151 -117t-215 -44q-218 0 -340 130t-122 372zM102 1536h317l198 -310h-239zM362 644h283v26q-2 97 -32 147t-104 50q-73 0 -107 -53t-40 -170z" />
<glyph unicode="&#xe9;" horiz-adv-x="980" d="M78 482v86q0 256 112 395t321 139q408 0 412 -517v-139h-563q6 -120 53 -176t145 -55q142 0 237 97l111 -171q-52 -73 -151 -117t-215 -44q-218 0 -340 130t-122 372zM334 1226l196 310h318l-278 -310h-236zM362 644h283v26q-2 97 -32 147t-104 50q-73 0 -107 -53 t-40 -170z" />
<glyph unicode="&#xea;" horiz-adv-x="980" d="M78 482v86q0 256 112 395t321 139q408 0 412 -517v-139h-563q6 -120 53 -176t145 -55q142 0 237 97l111 -171q-52 -73 -151 -117t-215 -44q-218 0 -340 130t-122 372zM132 1244v16l260 276h162l265 -280v-12h-221l-125 144l-125 -144h-216zM362 644h283v26q-2 97 -32 147 t-104 50q-73 0 -107 -53t-40 -170z" />
<glyph unicode="&#xeb;" horiz-adv-x="980" d="M78 482v86q0 256 112 395t321 139q408 0 412 -517v-139h-563q6 -120 53 -176t145 -55q142 0 237 97l111 -171q-52 -73 -151 -117t-215 -44q-218 0 -340 130t-122 372zM89 1366q1 54 41 90t98 37q58 -1 98 -37t41 -90q-1 -54 -41 -92q-40 -36 -98 -36t-98 36 q-40 38 -41 92zM362 644h283v26q-2 97 -32 147t-104 50q-73 0 -107 -53t-40 -170zM578 1366q0 54 40 90t99 36t99 -36t40 -90q0 -52 -38 -90t-101 -38t-101 38t-38 90z" />
<glyph unicode="&#xec;" horiz-adv-x="537" d="M-102 1521h317l198 -310h-239zM124 0v1082h283v-1082h-283z" />
<glyph unicode="&#xed;" horiz-adv-x="537" d="M124 0v1082h283v-1082h-283zM129 1211l196 310h318l-278 -310h-236z" />
<glyph unicode="&#xee;" horiz-adv-x="537" d="M-72 1229v16l260 276h162l265 -280v-12h-221l-125 144l-125 -144h-216zM124 0v1082h283v-1082h-283z" />
<glyph unicode="&#xef;" horiz-adv-x="537" d="M-116 1350q0 54 40 92q40 36 99 36t99 -36t40 -92q0 -54 -40 -90t-99 -37q-59 1 -99 37t-40 90zM124 0v1082h283v-1082h-283zM373 1351q1 53 41 89t98 37q58 -1 98 -37t41 -89q-1 -53 -39 -91t-100 -37q-62 -1 -100 37t-39 91z" />
<glyph unicode="&#xf0;" horiz-adv-x="1029" d="M75 468q0 227 103 362t281 135q102 0 183 -60q-43 143 -128 242l-154 -114l-73 114l128 94q-95 73 -216 113l89 225q198 -49 348 -175l141 104l72 -115l-116 -86q226 -262 226 -657v-72q0 -172 -58 -309t-162 -213t-230 -76t-225 63.5t-154 176t-55 248.5zM359 468 q0 -112 42.5 -182.5t114.5 -70.5t116 90.5t44 247.5v99l-1 19q-50 74 -140 74q-176 0 -176 -277z" />
<glyph unicode="&#xf1;" horiz-adv-x="1008" d="M96 0v1082h266l8 -107q96 127 251 127q279 0 287 -391v-711h-284v690q0 92 -28 134t-100 41q-73 0 -116 -79v-786h-284zM176 1256q0 112 57 190t140 78q40 0 102 -35t84 -43t46 -7q23 1 43 25t20 70l159 -12q-1 -110 -57 -188t-142 -78q-32 0 -56 9t-70 37q-44 28 -62 34 t-44 6q-24 0 -42 -24t-18 -71z" />
<glyph unicode="&#xf2;" horiz-adv-x="1019" d="M70 507v69q0 246 116 386t322 140t322 -140t116 -388v-69q0 -247 -115 -386t-323 -139t-322 140q-116 140 -116 387zM134 1536h317l198 -310h-239zM354 505q0 -290 155 -290q143 0 154 242l1 119q0 291 -157 291q-73 1 -113 -71t-40 -220v-71z" />
<glyph unicode="&#xf3;" horiz-adv-x="1019" d="M70 507v69q0 246 116 386t322 140t322 -140t116 -388v-69q0 -247 -115 -386t-323 -139t-322 140q-116 140 -116 387zM354 505q0 -290 155 -290q143 0 154 242l1 119q0 291 -157 291q-73 1 -113 -71t-40 -220v-71zM366 1226l196 310h318l-278 -310h-236z" />
<glyph unicode="&#xf4;" horiz-adv-x="1019" d="M70 507v69q0 246 116 386t322 140t322 -140t116 -388v-69q0 -247 -115 -386t-323 -139t-322 140q-116 140 -116 387zM164 1244v16l260 276h162l265 -280v-12h-221l-125 144l-125 -144h-216zM354 505q0 -290 155 -290q143 0 154 242l1 119q0 291 -157 291q-73 1 -113 -71 t-40 -220v-71z" />
<glyph unicode="&#xf5;" horiz-adv-x="1019" d="M70 507v69q0 246 116 386t322 140t322 -140t116 -388v-69q0 -247 -115 -386t-323 -139t-322 140q-116 140 -116 387zM178 1256q0 112 57 190t140 78q40 0 102 -35t84 -43t46 -7q23 1 43 25t20 70l159 -12q-1 -110 -57 -188t-142 -78q-32 0 -56 9t-70 37q-44 28 -62 34 t-44 6q-24 0 -42 -24t-18 -71zM354 505q0 -290 155 -290q143 0 154 242l1 119q0 291 -157 291q-73 1 -113 -71t-40 -220v-71z" />
<glyph unicode="&#xf6;" horiz-adv-x="1019" d="M70 507v69q0 246 116 386t322 140t322 -140t116 -388v-69q0 -247 -115 -386t-323 -139t-322 140q-116 140 -116 387zM120 1366q0 54 40 90t99 37q59 -1 99 -37t40 -90t-40 -92q-40 -36 -99 -36t-99 36q-40 38 -40 92zM354 505q0 -290 155 -290q143 0 154 242l1 119 q0 291 -157 291q-73 1 -113 -71t-40 -220v-71zM609 1366q1 54 41 90t98 36t98 -36t41 -90q-1 -52 -39 -90t-100 -38t-100 38t-39 90z" />
<glyph unicode="&#xf7;" horiz-adv-x="1023" d="M71 570v232h870v-232h-870zM349 278q0 68 44.5 110t112.5 42t111.5 -42t43.5 -110t-41.5 -110t-113.5 -42t-114.5 42t-42.5 110zM349 1090q0 66 42.5 108.5t114.5 42.5t113.5 -43t41.5 -109t-41.5 -108.5t-113.5 -42.5t-114.5 43t-42.5 109z" />
<glyph unicode="&#xf8;" horiz-adv-x="1017" d="M71 551q0 252 119 401.5t317 149.5q79 0 149 -25l57 139h152l-87 -212q168 -148 168 -474q0 -251 -118 -400.5t-319 -149.5q-78 0 -142 22l-59 -144h-152l88 214q-173 149 -173 479zM354 530q0 -100 13 -157l197 480q-26 14 -57 14q-139 0 -152 -268zM458 225 q21 -10 51 -10q140 0 153 264l1 72q0 79 -12 145z" />
<glyph unicode="&#xf9;" horiz-adv-x="1008" d="M96 381v701h283v-708q2 -158 105 -158q97 0 140 84v782h285v-1082h-266l-8 99q-89 -119 -237 -119t-225 102t-77 299zM128 1536h317l198 -310h-239z" />
<glyph unicode="&#xfa;" horiz-adv-x="1008" d="M96 381v701h283v-708q2 -158 105 -158q97 0 140 84v782h285v-1082h-266l-8 99q-89 -119 -237 -119t-225 102t-77 299zM360 1226l196 310h318l-278 -310h-236z" />
<glyph unicode="&#xfb;" horiz-adv-x="1008" d="M96 381v701h283v-708q2 -158 105 -158q97 0 140 84v782h285v-1082h-266l-8 99q-89 -119 -237 -119t-225 102t-77 299zM158 1244v16l260 276h162l265 -280v-12h-221l-125 144l-125 -144h-216z" />
<glyph unicode="&#xfc;" horiz-adv-x="1008" d="M96 381v701h283v-708q2 -158 105 -158q97 0 140 84v782h285v-1082h-266l-8 99q-89 -119 -237 -119t-225 102t-77 299zM114 1366q0 54 40 90t99 37q59 -1 99 -37t40 -90t-40 -92q-40 -36 -99 -36t-99 36q-40 38 -40 92zM603 1366q1 54 41 90t98 36t98 -36t41 -90 q-1 -52 -39 -90t-100 -38t-100 38t-39 90z" />
<glyph unicode="&#xfd;" horiz-adv-x="914" d="M16 1082h304l130 -611l144 611h302l-356 -1244q-80 -275 -301 -275q-51 0 -116 19v221l33 -1q66 0 100 26t50 88l22 73zM319 1226l196 310h318l-278 -310h-236z" />
<glyph unicode="&#xfe;" horiz-adv-x="1022" d="M105 -416v1952h283v-523q79 89 202 89q169 0 263.5 -145.5t94.5 -410.5t-96 -415.5t-259 -150.5q-126 0 -205 92v-488h-283zM388 296q38 -81 128 -81q149 0 149 325t-151 325q-87 0 -126 -84v-485z" />
<glyph unicode="&#xff;" horiz-adv-x="914" d="M16 1082h304l130 -611l144 611h302l-356 -1244q-80 -275 -301 -275q-51 0 -116 19v221l33 -1q66 0 100 26t50 88l22 73zM74 1366q0 54 40 90t99 37q59 -1 99 -37t40 -90t-40 -92q-40 -36 -99 -36t-99 36q-40 38 -40 92zM563 1366q1 54 41 90t98 36t98 -36t41 -90 q-1 -52 -39 -90t-100 -38t-100 38t-39 90z" />
<glyph unicode="&#x152;" horiz-adv-x="1723" d="M98 560v320q0 173 66 310t185 211.5t271 74.5q100 0 237 -20h752v-245h-540v-344h457v-237h-457v-386h542v-244h-754q-137 -20 -235 -20q-151 0 -270 73.5t-185 206.5t-69 300zM381 576q0 -181 65 -271.5t176 -90.5q81 0 153 12v1003q-89 12 -155 12q-111 0 -175 -90 t-64 -269v-306z" />
<glyph unicode="&#x153;" horiz-adv-x="1579" d="M88 537v14q0 252 117.5 401.5t308.5 149.5t305 -125q109 127 287 126t283 -128.5t105 -365.5v-160h-525q24 -235 201 -235q92 0 176 45l56 32l75 -188l-30 -25q-131 -98 -319 -98t-307 126q-113 -126 -306 -126t-310 149t-117 408zM371 530q0 -316 152 -316 q138 0 150 262l1 75q0 316 -152 316q-138 0 -150 -265zM971 647h246v26q0 194 -118 194q-109 0 -128 -220z" />
<glyph unicode="&#x178;" horiz-adv-x="1111" d="M16 1456h320l220 -654l219 654h320l-390 -928v-528h-298v528zM173 1676q1 54 41 90t98 37q58 -1 98 -37t41 -90q-1 -54 -41 -92q-40 -36 -98 -36t-98 36q-40 38 -41 92zM662 1676q0 54 40 90t99 36t99 -36t40 -90q0 -52 -38 -90t-101 -38t-101 38t-38 90z" />
<glyph unicode="&#x2c6;" horiz-adv-x="929" d="M118 1244v16l260 276h162l265 -280v-12h-221l-125 144l-125 -144h-216z" />
<glyph unicode="&#x2dc;" horiz-adv-x="895" d="M123 1258q0 111 57 189.5t140 78.5q40 0 102 -35t84 -42.5t46 -7.5t43.5 24.5t19.5 70.5l159 -12q0 -111 -56.5 -188.5t-142.5 -77.5q-32 0 -56.5 9t-69 37t-63 34t-42.5 6t-42.5 -24.5t-18.5 -70.5z" />
<glyph unicode="&#x2000;" horiz-adv-x="967" />
<glyph unicode="&#x2001;" horiz-adv-x="1935" />
<glyph unicode="&#x2002;" horiz-adv-x="967" />
<glyph unicode="&#x2003;" horiz-adv-x="1935" />
<glyph unicode="&#x2004;" horiz-adv-x="645" />
<glyph unicode="&#x2005;" horiz-adv-x="483" />
<glyph unicode="&#x2006;" horiz-adv-x="322" />
<glyph unicode="&#x2007;" horiz-adv-x="322" />
<glyph unicode="&#x2008;" horiz-adv-x="241" />
<glyph unicode="&#x2009;" horiz-adv-x="387" />
<glyph unicode="&#x200a;" horiz-adv-x="107" />
<glyph unicode="&#x2010;" horiz-adv-x="744" d="M123 506v236h489v-236h-489z" />
<glyph unicode="&#x2011;" horiz-adv-x="744" d="M123 506v236h489v-236h-489z" />
<glyph unicode="&#x2012;" horiz-adv-x="744" d="M123 506v236h489v-236h-489z" />
<glyph unicode="&#x2013;" horiz-adv-x="1121" d="M148 594v238h876v-238h-876z" />
<glyph unicode="&#x2014;" horiz-adv-x="1352" d="M61 594v238h1168v-238h-1168z" />
<glyph unicode="&#x2018;" horiz-adv-x="469" d="M108 1047v155q1 88 45 191t121 178l130 -79q-72 -143 -75 -274v-171h-221z" />
<glyph unicode="&#x2019;" horiz-adv-x="460" d="M67 1088q71 141 74 274v174h222v-158q-1 -91 -47.5 -196.5t-118.5 -172.5z" />
<glyph unicode="&#x201a;" horiz-adv-x="502" d="M79 -226q64 127 67 270v187h231l-1 -167q0 -87 -46 -192t-120 -177z" />
<glyph unicode="&#x201c;" horiz-adv-x="793" d="M117 1047v155q1 88 45 191t121 178l130 -79q-72 -143 -75 -274v-171h-221zM431 1047v155q1 88 45 191t121 178l130 -79q-72 -143 -75 -274v-171h-221z" />
<glyph unicode="&#x201d;" horiz-adv-x="800" d="M81 1088q71 141 74 274v174h222v-158q-1 -90 -47 -196t-119 -173zM400 1088q71 141 74 274v174h222v-158q-2 -90 -48 -196t-118 -173z" />
<glyph unicode="&#x201e;" horiz-adv-x="790" d="M79 -246q64 134 67 289v220h231l-1 -201q-1 -102 -46 -210t-112 -177zM389 -246q71 148 74 291v218h230l-1 -200q0 -111 -52 -219t-113 -169z" />
<glyph unicode="&#x2022;" horiz-adv-x="737" d="M135 723v43q0 100 64.5 165.5t172.5 65.5t173 -62.5t67 -163.5v-43q0 -102 -64 -165.5t-172 -63.5t-173.5 62.5t-67.5 161.5z" />
<glyph unicode="&#x2026;" horiz-adv-x="1358" d="M128 144q0 68 46 112t117 44q72 0 119 -44t47 -112q1 -70 -47 -112t-118 -43q-70 0 -118 43q-46 44 -46 112zM539 144q-1 68 45 112t118 44t119 -44t47 -112q0 -70 -48 -112t-118 -43q-70 0 -116 43q-46 44 -47 112zM945 144q-1 68 45 112t118 44t119 -44t47 -112 q0 -70 -48 -112t-118 -43q-70 0 -116 43q-46 44 -47 112z" />
<glyph unicode="&#x202f;" horiz-adv-x="387" />
<glyph unicode="&#x2039;" horiz-adv-x="582" d="M111 514v19l233 390h175l-192 -400l192 -399h-175z" />
<glyph unicode="&#x203a;" horiz-adv-x="562" d="M83 124l193 399l-193 400h177l233 -390v-19l-233 -390h-177z" />
<glyph unicode="&#x205f;" horiz-adv-x="483" />
<glyph unicode="&#x20ac;" d="M97 515v153h137v124h-137v152h138q15 252 151.5 391.5t360.5 139.5q90 0 201 -31l-36 -245q-72 32 -162 32t-150 -67.5t-69 -219.5h258v-152h-260v-124h260v-153h-260q8 -292 215 -292q100 0 168 31l36 -244q-108 -29 -221 -29q-224 0 -355.5 141.5t-137.5 392.5h-137z " />
<glyph unicode="&#x2122;" horiz-adv-x="1134" d="M119 1348v108h344v-108h-101v-431h-135v431h-108zM520 914v542h148l89 -367l97 367h139v-542h-120v351l-84 -351h-65l-84 352v-352h-120z" />
<glyph unicode="&#x25fc;" horiz-adv-x="1080" d="M0 0v1080h1080v-1080h-1080z" />
<glyph unicode="&#xfb03;" horiz-adv-x="1682" d="M37 869v213h131v97q1 179 94.5 278.5t258.5 99.5q50 0 128 -20l-2 -226q-29 9 -69 9q-126 0 -126 -150v-88h272v49q2 204 111.5 315t312.5 111q117 0 287 -59l-41 -241q-123 46 -228 46q-155 0 -158 -170v-51h167v-213h-167v-869h-284v869h-272v-869h-284v869h-131z M1280 0v1082h284v-1082h-284z" />
<glyph unicode="&#xfb04;" horiz-adv-x="1682" d="M37 869v213h131v97q1 179 94.5 278.5t258.5 99.5q50 0 128 -20l-2 -226q-29 9 -69 9q-126 0 -126 -150v-88h272v75q0 195 105 297.5t298 102.5q146 0 437 -31v-1526h-284v1313q-70 7 -113 7q-159 0 -159 -165v-73h169v-213h-169v-869h-284v869h-272v-869h-284v869h-131z " />
</font>
</defs>
</svg>
